<svg class="main-svg" xmlns="http://www.w3.org/2000/svg" xmlns:xlink="http://www.w3.org/1999/xlink" width="800" height="400" style="" viewBox="0 0 800 400"><rect x="0" y="0" width="800" height="400" style="fill: rgb(255, 255, 255); fill-opacity: 1;"/><defs id="defs-41ac8f"><g class="clips"><clipPath id="clip41ac8fxyplot" class="plotclip"><rect width="601" height="220"/></clipPath><clipPath class="axesclip" id="clip41ac8fx"><rect x="80" y="0" width="601" height="400"/></clipPath><clipPath class="axesclip" id="clip41ac8fy"><rect x="0" y="100" width="800" height="220"/></clipPath><clipPath class="axesclip" id="clip41ac8fxy"><rect x="80" y="100" width="601" height="220"/></clipPath></g><g class="gradients"/></defs><g class="bglayer"><rect class="bg" x="80" y="100" width="601" height="220" style="fill: rgb(229, 236, 246); fill-opacity: 1; stroke-width: 0;"/></g><g class="layer-below"><g class="imagelayer"/><g class="shapelayer"/></g><g class="cartesianlayer"><g class="subplot xy"><g class="layer-subplot"><g class="shapelayer"/><g class="imagelayer"/></g><g class="gridlayer"><g class="x"><path class="xgrid crisp" transform="translate(200,0)" d="M0,100v220" style="stroke: rgb(255, 255, 255); stroke-opacity: 1; stroke-width: 1px;"/><path class="xgrid crisp" transform="translate(320,0)" d="M0,100v220" style="stroke: rgb(255, 255, 255); stroke-opacity: 1; stroke-width: 1px;"/><path class="xgrid crisp" transform="translate(440,0)" d="M0,100v220" style="stroke: rgb(255, 255, 255); stroke-opacity: 1; stroke-width: 1px;"/><path class="xgrid crisp" transform="translate(560,0)" d="M0,100v220" style="stroke: rgb(255, 255, 255); stroke-opacity: 1; stroke-width: 1px;"/></g><g class="y"><path class="ygrid crisp" transform="translate(0,315.47)" d="M80,0h601" style="stroke: rgb(255, 255, 255); stroke-opacity: 1; stroke-width: 1px;"/><path class="ygrid crisp" transform="translate(0,281.44)" d="M80,0h601" style="stroke: rgb(255, 255, 255); stroke-opacity: 1; stroke-width: 1px;"/><path class="ygrid crisp" transform="translate(0,247.42)" d="M80,0h601" style="stroke: rgb(255, 255, 255); stroke-opacity: 1; stroke-width: 1px;"/><path class="ygrid crisp" transform="translate(0,179.37)" d="M80,0h601" style="stroke: rgb(255, 255, 255); stroke-opacity: 1; stroke-width: 1px;"/><path class="ygrid crisp" transform="translate(0,145.34)" d="M80,0h601" style="stroke: rgb(255, 255, 255); stroke-opacity: 1; stroke-width: 1px;"/><path class="ygrid crisp" transform="translate(0,111.32)" d="M80,0h601" style="stroke: rgb(255, 255, 255); stroke-opacity: 1; stroke-width: 1px;"/></g></g><g class="zerolinelayer"><path class="xzl zl crisp" transform="translate(80,0)" d="M0,100v220" style="stroke: rgb(255, 255, 255); stroke-opacity: 1; stroke-width: 2px;"/><path class="yzl zl crisp" transform="translate(0,213.39)" d="M80,0h601" style="stroke: rgb(255, 255, 255); stroke-opacity: 1; stroke-width: 2px;"/></g><path class="xlines-below"/><path class="ylines-below"/><g class="overlines-below"/><g class="xaxislayer-below"/><g class="yaxislayer-below"/><g class="overaxes-below"/><g class="plot" transform="translate(80, 100)" clip-path="url('#clip41ac8fxyplot')"><g class="scatterlayer mlayer"><g class="trace scatter trace19913b" style="stroke-miterlimit: 2;"><g class="fills"><g><path class="js-fill" d="M0,113.06L6,95.03L12,90.86L18,121.69L24,88.92L30,84.37L36,95.51L42,80.16L48,133.79L54,102.36L60,99.99L66,100.43L72,83.65L78,99.33L84,96.15L90,120.79L96,98.43L102,109.88L108,95.07L114,120.21L120,97.83L126,89.27L132,85.11L138,104.86L144,109.65L150,97.49L156,100.13L162,76.32L168,95.05L174,100.39L180,80.34L186,81.95L192,120.32L198,99.47L204,92.94L210,72.67L216,133.88L222,105.75L228,102.92L234,95.25L240,97.92L246,145.14L252,107.28L264,88.15L270,99.53L276,130.68L282,102.52L288,116.15L294,73.86L300,113.07L306,101.26L312,146.12L318,119.44L324,125.81L330,109.96L336,136.59L342,110.11L348,142.43L354,114.25L360,118.75L366,142.51L372,158.73L378,164.89L384,150.11L390,111.32L396,147.1L402,146.27L408,156.6L414,84.11L420,143.76L426,159.91L432,140.08L438,130.14L444,137.77L450,161.42L456,140.82L462,156.83L468,148.95L474,203.33L480,146.38L486,168.49L492,170.56L498,151.08L504,159.8L510,164.74L516,156.44L522,139.69L528,171.23L534,183.94L546,146.46L552,183.23L558,171.04L564,191.78L570,189.56L576,182.6L582,188.59L588,209L594,170.69L594,24.49L588,29.25L582,12.4L576,19.72L570,47.04L564,24.01L558,55.8L552,71.35L546,11L540,47.69L534,57.26L528,79.98L522,77.92L516,64.09L510,40.6L504,64.35L498,43.74L492,17.99L486,81.1L480,87.26L474,59.13L468,55.81L462,47.61L456,60.41L450,50.12L444,82.87L438,64.91L432,85.16L426,84.9L420,67.86L414,90.63L408,74.45L402,102.82L396,96.22L390,115.26L384,83.01L378,23.44L372,74.39L366,88.17L360,70.47L354,110.48L342,90.71L336,102.4L330,137.23L324,113.41L318,120.76L312,108.88L306,78.07L300,77.47L294,90.87L288,133.16L282,119.54L276,147.7L270,116.55L264,105.16L252,124.29L246,162.15L240,114.93L234,112.26L228,119.93L222,122.76L216,150.89L210,89.68L204,109.96L198,116.48L192,137.33L186,98.96L180,97.35L174,117.4L168,112.06L162,93.33L156,117.14L150,114.51L144,126.66L138,121.88L132,102.12L126,106.28L120,114.84L114,137.22L108,112.08L102,126.89L96,115.44L90,137.8L84,113.16L78,116.34L72,100.67L66,117.45L60,117.01L54,119.37L48,150.8L42,97.17L36,112.52L30,101.38L24,105.94L18,138.71L12,107.88L6,112.04L0,130.08Z" style="fill: rgb(0, 0, 0); fill-opacity: 0.5; stroke-width: 0;"/></g></g><g class="errorbars"/><g class="lines"><path class="js-line" d="M0,130.08L6,112.04L12,107.88L18,138.71L24,105.94L30,101.38L36,112.52L42,97.17L48,150.8L54,119.37L60,117.01L66,117.45L72,100.67L78,116.34L84,113.16L90,137.8L96,115.44L102,126.89L108,112.08L114,137.22L120,114.84L126,106.28L132,102.12L138,121.88L144,126.66L150,114.51L156,117.14L162,93.33L168,112.06L174,117.4L180,97.35L186,98.96L192,137.33L198,116.48L204,109.96L210,89.68L216,150.89L222,122.76L228,119.93L234,112.26L240,114.93L246,162.15L252,124.29L264,105.16L270,116.55L276,147.7L282,119.54L288,133.16L294,90.87L300,77.47L306,78.07L312,108.88L318,120.76L324,113.41L330,137.23L336,102.4L342,90.71L354,110.48L360,70.47L366,88.17L372,74.39L378,23.44L384,83.01L390,115.26L396,96.22L402,102.82L408,74.45L414,90.63L420,67.86L426,84.9L432,85.16L438,64.91L444,82.87L450,50.12L456,60.41L462,47.61L468,55.81L474,59.13L480,87.26L486,81.1L492,17.99L498,43.74L504,64.35L510,40.6L516,64.09L522,77.92L528,79.98L534,57.26L540,47.69L546,11L552,71.35L558,55.8L564,24.01L570,47.04L576,19.72L582,12.4L588,29.25L594,24.49" style="vector-effect: non-scaling-stroke; fill: none; stroke: rgb(0, 0, 255); stroke-opacity: 1; stroke-width: 2px; opacity: 1;"/></g><g class="points"/><g class="text"/></g><g class="trace scatter tracef7d317" style="stroke-miterlimit: 2;"><g class="fills"/><g class="errorbars"/><g class="lines"><path class="js-line" d="M0,113.06L6,95.03L12,90.86L18,121.69L24,88.92L30,84.37L36,95.51L42,80.16L48,133.79L54,102.36L60,99.99L66,100.43L72,83.65L78,99.33L84,96.15L90,120.79L96,98.43L102,109.88L108,95.07L114,120.21L120,97.83L126,89.27L132,85.11L138,104.86L144,109.65L150,97.49L156,100.13L162,76.32L168,95.05L174,100.39L180,80.34L186,81.95L192,120.32L198,99.47L204,92.94L210,72.67L216,133.88L222,105.75L228,102.92L234,95.25L240,97.92L246,145.14L252,107.28L264,88.15L270,99.53L276,130.68L282,102.52L288,116.15L294,73.86L300,113.07L306,101.26L312,146.12L318,119.44L324,125.81L330,109.96L336,136.59L342,110.11L348,142.43L354,114.25L360,118.75L366,142.51L372,158.73L378,164.89L384,150.11L390,111.32L396,147.1L402,146.27L408,156.6L414,84.11L420,143.76L426,159.91L432,140.08L438,130.14L444,137.77L450,161.42L456,140.82L462,156.83L468,148.95L474,203.33L480,146.38L486,168.49L492,170.56L498,151.08L504,159.8L510,164.74L516,156.44L522,139.69L528,171.23L534,183.94L546,146.46L552,183.23L558,171.04L564,191.78L570,189.56L576,182.6L582,188.59L588,209L594,170.69" style="vector-effect: non-scaling-stroke; fill: none; stroke: rgb(0, 0, 0); stroke-opacity: 1; stroke-width: 2px; opacity: 1;"/></g><g class="points"/><g class="text"/></g></g></g><g class="overplot"/><path class="xlines-above crisp" d="M0,0" style="fill: none;"/><path class="ylines-above crisp" d="M0,0" style="fill: none;"/><g class="overlines-above"/><g class="xaxislayer-above"><g class="xtick"><text text-anchor="middle" x="0" y="333" transform="translate(80,0)" style="font-family: 'Open Sans', verdana, arial, sans-serif; font-size: 12px; fill: rgb(42, 63, 95); fill-opacity: 1; white-space: pre;">0</text></g><g class="xtick"><text text-anchor="middle" x="0" y="333" transform="translate(200,0)" style="font-family: 'Open Sans', verdana, arial, sans-serif; font-size: 12px; fill: rgb(42, 63, 95); fill-opacity: 1; white-space: pre;">20</text></g><g class="xtick"><text text-anchor="middle" x="0" y="333" transform="translate(320,0)" style="font-family: 'Open Sans', verdana, arial, sans-serif; font-size: 12px; fill: rgb(42, 63, 95); fill-opacity: 1; white-space: pre;">40</text></g><g class="xtick"><text text-anchor="middle" x="0" y="333" transform="translate(440,0)" style="font-family: 'Open Sans', verdana, arial, sans-serif; font-size: 12px; fill: rgb(42, 63, 95); fill-opacity: 1; white-space: pre;">60</text></g><g class="xtick"><text text-anchor="middle" x="0" y="333" transform="translate(560,0)" style="font-family: 'Open Sans', verdana, arial, sans-serif; font-size: 12px; fill: rgb(42, 63, 95); fill-opacity: 1; white-space: pre;">80</text></g><g class="xtick"><text text-anchor="middle" x="0" y="333" transform="translate(680,0)" style="font-family: 'Open Sans', verdana, arial, sans-serif; font-size: 12px; fill: rgb(42, 63, 95); fill-opacity: 1; white-space: pre;">100</text></g></g><g class="yaxislayer-above"><g class="ytick"><text text-anchor="end" x="79" y="4.199999999999999" transform="translate(0,315.47)" style="font-family: 'Open Sans', verdana, arial, sans-serif; font-size: 12px; fill: rgb(42, 63, 95); fill-opacity: 1; white-space: pre;">−6</text></g><g class="ytick"><text text-anchor="end" x="79" y="4.199999999999999" transform="translate(0,281.44)" style="font-family: 'Open Sans', verdana, arial, sans-serif; font-size: 12px; fill: rgb(42, 63, 95); fill-opacity: 1; white-space: pre;">−4</text></g><g class="ytick"><text text-anchor="end" x="79" y="4.199999999999999" transform="translate(0,247.42)" style="font-family: 'Open Sans', verdana, arial, sans-serif; font-size: 12px; fill: rgb(42, 63, 95); fill-opacity: 1; white-space: pre;">−2</text></g><g class="ytick"><text text-anchor="end" x="79" y="4.199999999999999" transform="translate(0,213.39)" style="font-family: 'Open Sans', verdana, arial, sans-serif; font-size: 12px; fill: rgb(42, 63, 95); fill-opacity: 1; white-space: pre;">0</text></g><g class="ytick"><text text-anchor="end" x="79" y="4.199999999999999" transform="translate(0,179.37)" style="font-family: 'Open Sans', verdana, arial, sans-serif; font-size: 12px; fill: rgb(42, 63, 95); fill-opacity: 1; white-space: pre;">2</text></g><g class="ytick"><text text-anchor="end" x="79" y="4.199999999999999" transform="translate(0,145.34)" style="font-family: 'Open Sans', verdana, arial, sans-serif; font-size: 12px; fill: rgb(42, 63, 95); fill-opacity: 1; white-space: pre;">4</text></g><g class="ytick"><text text-anchor="end" x="79" y="4.199999999999999" transform="translate(0,111.32)" style="font-family: 'Open Sans', verdana, arial, sans-serif; font-size: 12px; fill: rgb(42, 63, 95); fill-opacity: 1; white-space: pre;">6</text></g></g><g class="overaxes-above"/></g></g><g class="polarlayer"/><g class="ternarylayer"/><g class="geolayer"/><g class="funnelarealayer"/><g class="pielayer"/><g class="treemaplayer"/><g class="sunburstlayer"/><g class="glimages"/><defs id="topdefs-41ac8f"><g class="clips"/><clipPath id="legend41ac8f"><rect width="95" height="48" x="0" y="0"/></clipPath></defs><g class="layer-above"><g class="imagelayer"/><g class="shapelayer"><path data-index="0" fill-rule="evenodd" d="M380,320H680V100H380Z" clip-path="url('#clip41ac8fx')" style="opacity: 1; stroke: rgb(255, 0, 0); stroke-opacity: 1; fill: rgb(0, 0, 0); fill-opacity: 0; stroke-width: 2px;"/></g></g><g class="infolayer"><g class="legend" pointer-events="all" transform="translate(693.02, 100)"><rect class="bg" shape-rendering="crispEdges" width="95" height="48" x="0" y="0" style="stroke: rgb(68, 68, 68); stroke-opacity: 1; fill: rgb(255, 255, 255); fill-opacity: 1; stroke-width: 0px;"/><g class="scrollbox" transform="translate(0, 0)" clip-path="url('#legend41ac8f')"><g class="groups"><g class="traces" transform="translate(0, 14.5)" style="opacity: 1;"><text class="legendtext" text-anchor="start" x="40" y="4.680000000000001" style="font-family: 'Open Sans', verdana, arial, sans-serif; font-size: 12px; fill: rgb(42, 63, 95); fill-opacity: 1; white-space: pre;">Series 2</text><g class="layers"><g class="legendfill"><path class="js-fill" d="M5,-2h30v6h-30z" style="stroke-width: 0; fill: rgb(0, 0, 0); fill-opacity: 0.5;"/></g><g class="legendlines"><path class="js-line" d="M5,-2h30" style="fill: none; stroke: rgb(0, 0, 0); stroke-opacity: 1; stroke-width: 2px;"/></g><g class="legendsymbols"><g class="legendpoints"/></g></g><rect class="legendtoggle" x="0" y="-9.5" width="89.015625" height="19" style="fill: rgb(0, 0, 0); fill-opacity: 0;"/></g><g class="traces" transform="translate(0, 33.5)" style="opacity: 1;"><text class="legendtext" text-anchor="start" x="40" y="4.680000000000001" style="font-family: 'Open Sans', verdana, arial, sans-serif; font-size: 12px; fill: rgb(42, 63, 95); fill-opacity: 1; white-space: pre;">Series 1</text><g class="layers"><g class="legendfill"/><g class="legendlines"><path class="js-line" d="M5,0h30" style="fill: none; stroke: rgb(0, 0, 255); stroke-opacity: 1; stroke-width: 2px;"/></g><g class="legendsymbols"><g class="legendpoints"/></g></g><rect class="legendtoggle" x="0" y="-9.5" width="89.015625" height="19" style="fill: rgb(0, 0, 0); fill-opacity: 0;"/></g></g></g><rect class="scrollbar" rx="20" ry="3" width="0" height="0" x="0" y="0" style="fill: rgb(128, 139, 164); fill-opacity: 1;"/></g><g class="g-gtitle"><text class="gtitle" x="40" y="50" text-anchor="start" dy="0em" style="font-family: 'Open Sans', verdana, arial, sans-serif; font-size: 17px; fill: rgb(42, 63, 95); opacity: 1; font-weight: normal; white-space: pre;">Correlation Outlier</text></g><g class="g-xtitle"><text class="xtitle" x="380.5" y="360.3" text-anchor="middle" style="font-family: 'Open Sans', verdana, arial, sans-serif; font-size: 14px; fill: rgb(42, 63, 95); opacity: 1; font-weight: normal; white-space: pre;">Time</text></g><g class="g-ytitle"><text class="ytitle" transform="rotate(-90,36.746875,210)" x="36.746875" y="210" text-anchor="middle" style="font-family: 'Open Sans', verdana, arial, sans-serif; font-size: 14px; fill: rgb(42, 63, 95); opacity: 1; font-weight: normal; white-space: pre;">Value</text></g></g></svg>