<svg class="main-svg" xmlns="http://www.w3.org/2000/svg" xmlns:xlink="http://www.w3.org/1999/xlink" width="800" height="400" style="" viewBox="0 0 800 400"><rect x="0" y="0" width="800" height="400" style="fill: rgb(255, 255, 255); fill-opacity: 1;"/><defs id="defs-c1ffb1"><g class="clips"><clipPath id="clipc1ffb1xyplot" class="plotclip"><rect width="519" height="220"/></clipPath><clipPath class="axesclip" id="clipc1ffb1x"><rect x="80" y="0" width="519" height="400"/></clipPath><clipPath class="axesclip" id="clipc1ffb1y"><rect x="0" y="100" width="800" height="220"/></clipPath><clipPath class="axesclip" id="clipc1ffb1xy"><rect x="80" y="100" width="519" height="220"/></clipPath></g><g class="gradients"/><g class="patterns"/></defs><g class="bglayer"><rect class="bg" x="80" y="100" width="519" height="220" style="fill: rgb(229, 236, 246); fill-opacity: 1; stroke-width: 0;"/></g><g class="layer-below"><g class="imagelayer"/><g class="shapelayer"/></g><g class="cartesianlayer"><g class="subplot xy"><g class="layer-subplot"><g class="shapelayer"/><g class="imagelayer"/></g><g class="gridlayer"><g class="x"><path class="xgrid crisp" transform="translate(178.09,0)" d="M0,100v220" style="stroke: rgb(255, 255, 255); stroke-opacity: 1; stroke-width: 1px;"/><path class="xgrid crisp" transform="translate(276.18,0)" d="M0,100v220" style="stroke: rgb(255, 255, 255); stroke-opacity: 1; stroke-width: 1px;"/><path class="xgrid crisp" transform="translate(374.27,0)" d="M0,100v220" style="stroke: rgb(255, 255, 255); stroke-opacity: 1; stroke-width: 1px;"/><path class="xgrid crisp" transform="translate(472.36,0)" d="M0,100v220" style="stroke: rgb(255, 255, 255); stroke-opacity: 1; stroke-width: 1px;"/><path class="xgrid crisp" transform="translate(570.45,0)" d="M0,100v220" style="stroke: rgb(255, 255, 255); stroke-opacity: 1; stroke-width: 1px;"/></g><g class="y"><path class="ygrid crisp" transform="translate(0,238.21)" d="M80,0h519" style="stroke: rgb(255, 255, 255); stroke-opacity: 1; stroke-width: 1px;"/><path class="ygrid crisp" transform="translate(0,172.42000000000002)" d="M80,0h519" style="stroke: rgb(255, 255, 255); stroke-opacity: 1; stroke-width: 1px;"/><path class="ygrid crisp" transform="translate(0,106.63)" d="M80,0h519" style="stroke: rgb(255, 255, 255); stroke-opacity: 1; stroke-width: 1px;"/></g></g><g class="zerolinelayer"><path class="xzl zl crisp" transform="translate(80,0)" d="M0,100v220" style="stroke: rgb(255, 255, 255); stroke-opacity: 1; stroke-width: 2px;"/><path class="yzl zl crisp" transform="translate(0,304)" d="M80,0h519" style="stroke: rgb(255, 255, 255); stroke-opacity: 1; stroke-width: 2px;"/></g><path class="xlines-below"/><path class="ylines-below"/><g class="overlines-below"/><g class="xaxislayer-below"/><g class="yaxislayer-below"/><g class="overaxes-below"/><g class="plot" transform="translate(80,100)" clip-path="url(#clipc1ffb1xyplot)"><g class="scatterlayer mlayer"><g class="trace scatter trace6b2a06" style="stroke-miterlimit: 2; opacity: 1;"><g class="fills"><g><path class="js-fill" d="M0,68.54L4.9,62.49L9.81,81.45L14.71,67.53L19.62,39.57L24.52,51.33L29.43,69.76L34.33,43.41L39.24,83.91L44.14,72.34L49.05,37.32L53.95,76.01L58.85,59.62L63.76,71.22L68.66,73.5L73.57,68.36L78.47,53.22L83.38,79.41L88.28,53.4L93.19,92.23L98.09,93.11L103,105.33L107.9,77.34L112.8,58L117.71,95.62L122.61,98.22L127.52,108.15L132.42,67.17L137.33,74.48L147.14,82.09L152.04,83.18L156.95,87.77L161.85,70.21L166.75,107.4L171.66,114.71L176.56,106.18L181.47,102.46L186.37,77.82L191.28,107.47L196.18,128.08L201.09,93.82L205.99,76.36L210.9,80.06L215.8,92.66L220.7,88.33L225.61,81.03L230.51,130.91L235.42,140.54L240.32,116.35L245.23,110.17L250.13,126.89L255.04,150.22L259.94,105.91L264.85,116.39L269.75,139.41L274.65,152.37L279.56,105.57L284.46,116.51L289.37,98.7L294.27,100.47L299.18,109.82L304.08,137.45L308.99,138.77L313.89,108.48L318.8,131.28L323.7,119.97L328.6,151.19L333.51,166.16L338.41,169.5L343.32,115.89L348.22,161.83L353.13,125.62L358.03,163.16L362.94,154.37L367.84,133.48L372.75,124.92L377.65,171.09L382.55,123.15L387.46,178.79L392.36,178.77L397.27,149.81L402.17,193.45L407.08,151.81L411.98,164.34L416.89,195.04L421.79,187.9L426.7,151.1L431.6,138.25L436.5,198.19L446.31,186.54L451.22,161.45L456.12,143.13L461.03,178.32L465.93,201.29L470.84,179.24L475.74,163.38L480.65,209L485.55,186.97L485.55,160.66L480.65,182.68L475.74,137.06L470.84,152.93L465.93,174.97L461.03,152L456.12,116.81L451.22,135.14L446.31,160.23L436.5,171.88L431.6,111.93L426.7,124.79L421.79,161.59L416.89,168.72L411.98,138.03L407.08,125.5L402.17,167.13L397.27,123.49L392.36,152.46L387.46,152.47L382.55,96.83L377.65,144.78L372.75,98.6L367.84,107.17L362.94,128.06L358.03,136.84L353.13,99.31L348.22,135.51L343.32,89.58L338.41,143.18L333.51,139.84L328.6,124.88L323.7,93.65L318.8,104.96L313.89,82.17L308.99,112.46L304.08,111.13L299.18,83.51L294.27,74.15L289.37,72.39L284.46,90.2L279.56,79.25L274.65,126.05L269.75,113.1L264.85,90.08L259.94,79.6L255.04,123.9L250.13,100.57L245.23,83.85L240.32,90.03L235.42,114.23L230.51,104.6L225.61,54.71L220.7,62.02L215.8,66.34L210.9,53.74L205.99,50.05L201.09,67.5L196.18,101.77L191.28,81.15L186.37,51.5L181.47,76.14L176.56,79.86L171.66,88.39L166.75,81.09L161.85,43.89L156.95,61.46L152.04,56.87L147.14,55.77L137.33,48.17L132.42,40.85L127.52,81.83L122.61,71.91L117.71,69.3L112.8,31.68L107.9,51.03L103,79.01L98.09,66.8L93.19,65.92L88.28,27.09L83.38,53.1L78.47,26.9L73.57,42.04L68.66,47.19L63.76,44.9L58.85,33.3L53.95,49.7L49.05,11L44.14,46.03L39.24,57.59L34.33,17.1L29.43,43.44L24.52,25.02L19.62,13.26L14.71,41.22L9.81,55.14L4.9,36.18L0,42.22Z" style="fill: rgb(0, 128, 0); fill-opacity: 0.5; stroke-width: 0;"/></g></g><g class="errorbars"/><g class="lines"><path class="js-line" d="M0,68.54L4.9,62.49L9.81,81.45L14.71,67.53L19.62,39.57L24.52,51.33L29.43,69.76L34.33,43.41L39.24,83.91L44.14,72.34L49.05,37.32L53.95,76.01L58.85,59.62L63.76,71.22L68.66,73.5L73.57,68.36L78.47,53.22L83.38,79.41L88.28,53.4L93.19,92.23L98.09,93.11L103,105.33L107.9,77.34L112.8,58L117.71,95.62L122.61,98.22L127.52,108.15L132.42,67.17L137.33,74.48L147.14,82.09L152.04,83.18L156.95,87.77L161.85,70.21L166.75,107.4L171.66,114.71L176.56,106.18L181.47,102.46L186.37,77.82L191.28,107.47L196.18,128.08L201.09,93.82L205.99,76.36L210.9,80.06L215.8,92.66L220.7,88.33L225.61,81.03L230.51,130.91L235.42,140.54L240.32,116.35L245.23,110.17L250.13,126.89L255.04,150.22L259.94,105.91L264.85,116.39L269.75,139.41L274.65,152.37L279.56,105.57L284.46,116.51L289.37,98.7L294.27,100.47L299.18,109.82L304.08,137.45L308.99,138.77L313.89,108.48L318.8,131.28L323.7,119.97L328.6,151.19L333.51,166.16L338.41,169.5L343.32,115.89L348.22,161.83L353.13,125.62L358.03,163.16L362.94,154.37L367.84,133.48L372.75,124.92L377.65,171.09L382.55,123.15L387.46,178.79L392.36,178.77L397.27,149.81L402.17,193.45L407.08,151.81L411.98,164.34L416.89,195.04L421.79,187.9L426.7,151.1L431.6,138.25L436.5,198.19L446.31,186.54L451.22,161.45L456.12,143.13L461.03,178.32L465.93,201.29L470.84,179.24L475.74,163.38L480.65,209L485.55,186.97L485.55,160.66L480.65,182.68L475.74,137.06L470.84,152.93L465.93,174.97L461.03,152L456.12,116.81L451.22,135.14L446.31,160.23L436.5,171.88L431.6,111.93L426.7,124.79L421.79,161.59L416.89,168.72L411.98,138.03L407.08,125.5L402.17,167.13L397.27,123.49L392.36,152.46L387.46,152.47L382.55,96.83L377.65,144.78L372.75,98.6L367.84,107.17L362.94,128.06L358.03,136.84L353.13,99.31L348.22,135.51L343.32,89.58L338.41,143.18L333.51,139.84L328.6,124.88L323.7,93.65L318.8,104.96L313.89,82.17L308.99,112.46L304.08,111.13L299.18,83.51L294.27,74.15L289.37,72.39L284.46,90.2L279.56,79.25L274.65,126.05L269.75,113.1L264.85,90.08L259.94,79.6L255.04,123.9L250.13,100.57L245.23,83.85L240.32,90.03L235.42,114.23L230.51,104.6L225.61,54.71L220.7,62.02L215.8,66.34L210.9,53.74L205.99,50.05L201.09,67.5L196.18,101.77L191.28,81.15L186.37,51.5L181.47,76.14L176.56,79.86L171.66,88.39L166.75,81.09L161.85,43.89L156.95,61.46L152.04,56.87L147.14,55.77L137.33,48.17L132.42,40.85L127.52,81.83L122.61,71.91L117.71,69.3L112.8,31.68L107.9,51.03L103,79.01L98.09,66.8L93.19,65.92L88.28,27.09L83.38,53.1L78.47,26.9L73.57,42.04L68.66,47.19L63.76,44.9L58.85,33.3L53.95,49.7L49.05,11L44.14,46.03L39.24,57.59L34.33,17.1L29.43,43.44L24.52,25.02L19.62,13.26L14.71,41.22L9.81,55.14L4.9,36.18L0,42.22" style="vector-effect: non-scaling-stroke; fill: none; stroke: rgb(0, 128, 0); stroke-opacity: 1; stroke-width: 2px; opacity: 1;"/></g><g class="points"/><g class="text"/></g><g class="trace scatter tracee81cb8" style="stroke-miterlimit: 2; opacity: 1;"><g class="fills"/><g class="errorbars"/><g class="lines"><path class="js-line" d="M0,55.38L4.9,49.34L9.81,68.29L14.71,54.38L19.62,26.41L24.52,38.18L29.43,56.6L34.33,30.26L39.24,70.75L44.14,59.18L49.05,24.16L53.95,62.86L58.85,46.46L63.76,58.06L68.66,60.34L73.57,55.2L78.47,40.06L83.38,66.26L88.28,40.24L93.19,79.08L98.09,79.95L103,92.17L107.9,64.18L112.8,44.84L117.71,82.46L122.61,85.07L127.52,94.99L132.42,54.01L137.33,61.33L147.14,68.93L152.04,70.03L156.95,74.62L161.85,57.05L166.75,94.25L171.66,101.55L176.56,93.02L181.47,89.3L186.37,64.66L191.28,94.31L196.18,114.92L201.09,80.66L205.99,63.21L210.9,66.9L215.8,79.5L220.7,75.17L225.61,67.87L230.51,117.76L235.42,127.38L240.32,103.19L245.23,97.01L250.13,113.73L255.04,137.06L259.94,92.76L264.85,103.23L269.75,126.25L274.65,139.21L279.56,92.41L284.46,103.35L289.37,85.55L294.27,87.31L299.18,96.66L304.08,124.29L308.99,125.62L313.89,95.33L318.8,118.12L323.7,106.81L328.6,138.04L333.51,153L338.41,156.34L343.32,102.74L348.22,148.67L353.13,112.46L358.03,150L362.94,141.22L367.84,120.32L372.75,111.76L377.65,157.94L382.55,109.99L387.46,165.63L392.36,165.61L397.27,136.65L402.17,180.29L407.08,138.65L411.98,151.19L416.89,181.88L421.79,174.74L426.7,137.94L431.6,125.09L436.5,185.03L446.31,173.39L451.22,148.3L456.12,129.97L461.03,165.16L465.93,188.13L470.84,166.08L475.74,150.22L480.65,195.84L485.55,173.81" style="vector-effect: non-scaling-stroke; fill: none; stroke: rgb(0, 0, 255); stroke-opacity: 1; stroke-width: 2px; opacity: 1;"/></g><g class="points"/><g class="text"/></g><g class="trace scatter trace8228c2" style="stroke-miterlimit: 2; opacity: 1;"><g class="fills"/><g class="errorbars"/><g class="lines"/><g class="points"><path class="point" transform="translate(402.17,167.13)" d="M6,0A6,6 0 1,1 0,-6A6,6 0 0,1 6,0Z" style="opacity: 1; stroke-width: 2px; fill: rgb(255, 0, 0); fill-opacity: 1; stroke: rgb(47, 79, 79); stroke-opacity: 1;"/><path class="point" transform="translate(416.89,168.72)" d="M6,0A6,6 0 1,1 0,-6A6,6 0 0,1 6,0Z" style="opacity: 1; stroke-width: 2px; fill: rgb(255, 0, 0); fill-opacity: 1; stroke: rgb(47, 79, 79); stroke-opacity: 1;"/><path class="point" transform="translate(421.79,161.59)" d="M6,0A6,6 0 1,1 0,-6A6,6 0 0,1 6,0Z" style="opacity: 1; stroke-width: 2px; fill: rgb(255, 0, 0); fill-opacity: 1; stroke: rgb(47, 79, 79); stroke-opacity: 1;"/><path class="point" transform="translate(436.5,171.88)" d="M6,0A6,6 0 1,1 0,-6A6,6 0 0,1 6,0Z" style="opacity: 1; stroke-width: 2px; fill: rgb(255, 0, 0); fill-opacity: 1; stroke: rgb(47, 79, 79); stroke-opacity: 1;"/><path class="point" transform="translate(441.41,165.5)" d="M6,0A6,6 0 1,1 0,-6A6,6 0 0,1 6,0Z" style="opacity: 1; stroke-width: 2px; fill: rgb(255, 0, 0); fill-opacity: 1; stroke: rgb(47, 79, 79); stroke-opacity: 1;"/><path class="point" transform="translate(446.31,160.23)" d="M6,0A6,6 0 1,1 0,-6A6,6 0 0,1 6,0Z" style="opacity: 1; stroke-width: 2px; fill: rgb(255, 0, 0); fill-opacity: 1; stroke: rgb(47, 79, 79); stroke-opacity: 1;"/><path class="point" transform="translate(465.93,174.97)" d="M6,0A6,6 0 1,1 0,-6A6,6 0 0,1 6,0Z" style="opacity: 1; stroke-width: 2px; fill: rgb(255, 0, 0); fill-opacity: 1; stroke: rgb(47, 79, 79); stroke-opacity: 1;"/><path class="point" transform="translate(480.65,182.68)" d="M6,0A6,6 0 1,1 0,-6A6,6 0 0,1 6,0Z" style="opacity: 1; stroke-width: 2px; fill: rgb(255, 0, 0); fill-opacity: 1; stroke: rgb(47, 79, 79); stroke-opacity: 1;"/><path class="point" transform="translate(485.55,160.66)" d="M6,0A6,6 0 1,1 0,-6A6,6 0 0,1 6,0Z" style="opacity: 1; stroke-width: 2px; fill: rgb(255, 0, 0); fill-opacity: 1; stroke: rgb(47, 79, 79); stroke-opacity: 1;"/></g><g class="text"/></g></g></g><g class="overplot"/><path class="xlines-above crisp" d="M0,0" style="fill: none;"/><path class="ylines-above crisp" d="M0,0" style="fill: none;"/><g class="overlines-above"/><g class="xaxislayer-above"><g class="xtick"><text text-anchor="middle" x="0" y="333" transform="translate(80,0)" style="font-family: 'Open Sans', verdana, arial, sans-serif; font-size: 12px; fill: rgb(42, 63, 95); fill-opacity: 1; white-space: pre; opacity: 1;">0</text></g><g class="xtick"><text text-anchor="middle" x="0" y="333" style="font-family: 'Open Sans', verdana, arial, sans-serif; font-size: 12px; fill: rgb(42, 63, 95); fill-opacity: 1; white-space: pre; opacity: 1;" transform="translate(178.09,0)">20</text></g><g class="xtick"><text text-anchor="middle" x="0" y="333" style="font-family: 'Open Sans', verdana, arial, sans-serif; font-size: 12px; fill: rgb(42, 63, 95); fill-opacity: 1; white-space: pre; opacity: 1;" transform="translate(276.18,0)">40</text></g><g class="xtick"><text text-anchor="middle" x="0" y="333" style="font-family: 'Open Sans', verdana, arial, sans-serif; font-size: 12px; fill: rgb(42, 63, 95); fill-opacity: 1; white-space: pre; opacity: 1;" transform="translate(374.27,0)">60</text></g><g class="xtick"><text text-anchor="middle" x="0" y="333" style="font-family: 'Open Sans', verdana, arial, sans-serif; font-size: 12px; fill: rgb(42, 63, 95); fill-opacity: 1; white-space: pre; opacity: 1;" transform="translate(472.36,0)">80</text></g><g class="xtick"><text text-anchor="middle" x="0" y="333" style="font-family: 'Open Sans', verdana, arial, sans-serif; font-size: 12px; fill: rgb(42, 63, 95); fill-opacity: 1; white-space: pre; opacity: 1;" transform="translate(570.45,0)">100</text></g></g><g class="yaxislayer-above"><g class="ytick"><text text-anchor="end" x="79" y="4.199999999999999" transform="translate(0,304)" style="font-family: 'Open Sans', verdana, arial, sans-serif; font-size: 12px; fill: rgb(42, 63, 95); fill-opacity: 1; white-space: pre; opacity: 1;">0</text></g><g class="ytick"><text text-anchor="end" x="79" y="4.199999999999999" style="font-family: 'Open Sans', verdana, arial, sans-serif; font-size: 12px; fill: rgb(42, 63, 95); fill-opacity: 1; white-space: pre; opacity: 1;" transform="translate(0,238.21)">1</text></g><g class="ytick"><text text-anchor="end" x="79" y="4.199999999999999" style="font-family: 'Open Sans', verdana, arial, sans-serif; font-size: 12px; fill: rgb(42, 63, 95); fill-opacity: 1; white-space: pre; opacity: 1;" transform="translate(0,172.42000000000002)">2</text></g><g class="ytick"><text text-anchor="end" x="79" y="4.199999999999999" style="font-family: 'Open Sans', verdana, arial, sans-serif; font-size: 12px; fill: rgb(42, 63, 95); fill-opacity: 1; white-space: pre; opacity: 1;" transform="translate(0,106.63)">3</text></g></g><g class="overaxes-above"/></g></g><g class="polarlayer"/><g class="smithlayer"/><g class="ternarylayer"/><g class="geolayer"/><g class="funnelarealayer"/><g class="pielayer"/><g class="iciclelayer"/><g class="treemaplayer"/><g class="sunburstlayer"/><g class="glimages"/><defs id="topdefs-c1ffb1"><g class="clips"/><clipPath id="legendc1ffb1"><rect width="179" height="67" x="0" y="0"/></clipPath></defs><g class="layer-above"><g class="imagelayer"/><g class="shapelayer"><path data-index="0" fill-rule="evenodd" d="M80,257.94L599,257.94" clip-path="url(#clipc1ffb1y)" style="opacity: 1; stroke: rgb(192, 3, 3); stroke-opacity: 1; fill: rgb(0, 0, 0); fill-opacity: 0; stroke-dasharray: 3px, 3px; stroke-width: 2px;"/></g></g><g class="infolayer"><g class="legend" pointer-events="all" transform="translate(609.38,100)"><rect class="bg" shape-rendering="crispEdges" width="179" height="67" x="0" y="0" style="stroke: rgb(68, 68, 68); stroke-opacity: 1; fill: rgb(255, 255, 255); fill-opacity: 1; stroke-width: 0px;"/><g class="scrollbox" transform="" clip-path="url(#legendc1ffb1)"><g class="groups"><g class="traces" transform="translate(0,14.5)" style="opacity: 1;"><text class="legendtext" text-anchor="start" x="40" y="4.680000000000001" style="font-family: 'Open Sans', verdana, arial, sans-serif; font-size: 12px; fill: rgb(42, 63, 95); fill-opacity: 1; white-space: pre;">Accuracy</text><g class="layers" style="opacity: 1;"><g class="legendfill"><path class="js-fill" d="M5,-2h30v6h-30z" style="stroke-width: 0; fill: rgb(0, 128, 0); fill-opacity: 0.5;"/></g><g class="legendlines"><path class="js-line" d="M5,-2h30" style="fill: none; stroke: rgb(0, 128, 0); stroke-opacity: 1; stroke-width: 2px;"/></g><g class="legendsymbols"><g class="legendpoints"/></g></g><rect class="legendtoggle" x="0" y="-9.5" width="173.640625" height="19" style="fill: rgb(0, 0, 0); fill-opacity: 0;"/></g><g class="traces" transform="translate(0,33.5)" style="opacity: 1;"><text class="legendtext" text-anchor="start" x="40" y="4.680000000000001" style="font-family: 'Open Sans', verdana, arial, sans-serif; font-size: 12px; fill: rgb(42, 63, 95); fill-opacity: 1; white-space: pre;">Series</text><g class="layers" style="opacity: 1;"><g class="legendfill"/><g class="legendlines"><path class="js-line" d="M5,0h30" style="fill: none; stroke: rgb(0, 0, 255); stroke-opacity: 1; stroke-width: 2px;"/></g><g class="legendsymbols"><g class="legendpoints"/></g></g><rect class="legendtoggle" x="0" y="-9.5" width="173.640625" height="19" style="fill: rgb(0, 0, 0); fill-opacity: 0;"/></g><g class="traces" transform="translate(0,52.5)" style="opacity: 1;"><text class="legendtext" text-anchor="start" x="40" y="4.680000000000001" style="font-family: 'Open Sans', verdana, arial, sans-serif; font-size: 12px; fill: rgb(42, 63, 95); fill-opacity: 1; white-space: pre;">Outside limit accuracy</text><g class="layers" style="opacity: 1;"><g class="legendfill"/><g class="legendlines"/><g class="legendsymbols"><g class="legendpoints"><path class="scatterpts" transform="translate(20,0)" d="M6,0A6,6 0 1,1 0,-6A6,6 0 0,1 6,0Z" style="opacity: 1; stroke-width: 2px; fill: rgb(255, 0, 0); fill-opacity: 1; stroke: rgb(47, 79, 79); stroke-opacity: 1;"/></g></g></g><rect class="legendtoggle" x="0" y="-9.5" width="173.640625" height="19" style="fill: rgb(0, 0, 0); fill-opacity: 0;"/></g></g></g><rect class="scrollbar" rx="20" ry="3" width="0" height="0" x="0" y="0" style="fill: rgb(128, 139, 164); fill-opacity: 1;"/></g><g class="g-gtitle"><text class="gtitle" x="40" y="50" text-anchor="start" dy="0em" style="font-family: 'Open Sans', verdana, arial, sans-serif; font-size: 17px; fill: rgb(42, 63, 95); opacity: 1; font-weight: normal; white-space: pre;">Percentage out-of-bounds (accuracy) (score=90%)</text></g><g class="g-xtitle"><text class="xtitle" x="339.5" y="360.3" text-anchor="middle" style="font-family: 'Open Sans', verdana, arial, sans-serif; font-size: 14px; fill: rgb(42, 63, 95); opacity: 1; font-weight: normal; white-space: pre;">Time</text></g><g class="g-ytitle"><text class="ytitle" transform="rotate(-90,46.559375,210)" x="46.559375" y="210" text-anchor="middle" style="font-family: 'Open Sans', verdana, arial, sans-serif; font-size: 14px; fill: rgb(42, 63, 95); opacity: 1; font-weight: normal; white-space: pre;">Value</text></g></g></svg>