<svg class="main-svg" xmlns="http://www.w3.org/2000/svg" xmlns:xlink="http://www.w3.org/1999/xlink" width="800" height="400" style="" viewBox="0 0 800 400"><rect x="0" y="0" width="800" height="400" style="fill: rgb(255, 255, 255); fill-opacity: 1;"/><defs id="defs-f32040"><g class="clips"><clipPath id="clipf32040xyplot" class="plotclip"><rect width="519" height="220"/></clipPath><clipPath class="axesclip" id="clipf32040x"><rect x="80" y="0" width="519" height="400"/></clipPath><clipPath class="axesclip" id="clipf32040y"><rect x="0" y="100" width="800" height="220"/></clipPath><clipPath class="axesclip" id="clipf32040xy"><rect x="80" y="100" width="519" height="220"/></clipPath></g><g class="gradients"/></defs><g class="bglayer"><rect class="bg" x="80" y="100" width="519" height="220" style="fill: rgb(229, 236, 246); fill-opacity: 1; stroke-width: 0;"/></g><g class="layer-below"><g class="imagelayer"/><g class="shapelayer"/></g><g class="cartesianlayer"><g class="subplot xy"><g class="layer-subplot"><g class="shapelayer"/><g class="imagelayer"/></g><g class="gridlayer"><g class="x"><path class="xgrid crisp" transform="translate(178.09,0)" d="M0,100v220" style="stroke: rgb(255, 255, 255); stroke-opacity: 1; stroke-width: 1px;"/><path class="xgrid crisp" transform="translate(276.18,0)" d="M0,100v220" style="stroke: rgb(255, 255, 255); stroke-opacity: 1; stroke-width: 1px;"/><path class="xgrid crisp" transform="translate(374.27,0)" d="M0,100v220" style="stroke: rgb(255, 255, 255); stroke-opacity: 1; stroke-width: 1px;"/><path class="xgrid crisp" transform="translate(472.36,0)" d="M0,100v220" style="stroke: rgb(255, 255, 255); stroke-opacity: 1; stroke-width: 1px;"/><path class="xgrid crisp" transform="translate(570.45,0)" d="M0,100v220" style="stroke: rgb(255, 255, 255); stroke-opacity: 1; stroke-width: 1px;"/></g><g class="y"><path class="ygrid crisp" transform="translate(0,244.46)" d="M80,0h519" style="stroke: rgb(255, 255, 255); stroke-opacity: 1; stroke-width: 1px;"/><path class="ygrid crisp" transform="translate(0,186.63)" d="M80,0h519" style="stroke: rgb(255, 255, 255); stroke-opacity: 1; stroke-width: 1px;"/><path class="ygrid crisp" transform="translate(0,128.81)" d="M80,0h519" style="stroke: rgb(255, 255, 255); stroke-opacity: 1; stroke-width: 1px;"/></g></g><g class="zerolinelayer"><path class="xzl zl crisp" transform="translate(80,0)" d="M0,100v220" style="stroke: rgb(255, 255, 255); stroke-opacity: 1; stroke-width: 2px;"/><path class="yzl zl crisp" transform="translate(0,302.28)" d="M80,0h519" style="stroke: rgb(255, 255, 255); stroke-opacity: 1; stroke-width: 2px;"/></g><path class="xlines-below"/><path class="ylines-below"/><g class="overlines-below"/><g class="xaxislayer-below"/><g class="yaxislayer-below"/><g class="overaxes-below"/><g class="plot" transform="translate(80, 100)" clip-path="url('#clipf32040xyplot')"><g class="scatterlayer mlayer"><g class="trace scatter trace0bc19b" style="stroke-miterlimit: 2; opacity: 1;"><g class="fills"><g><path class="js-fill" d="M0,206.87L4.9,165.59L9.81,168.65L14.71,204.03L19.62,209L24.52,198.83L29.43,169.93L34.33,158.96L39.24,186.36L44.14,175.43L49.05,155.71L53.95,143.55L58.85,190.18L63.76,181.13L68.66,176.38L73.57,151.49L78.47,146.69L83.38,178.22L88.28,190.23L93.19,147.23L98.09,141.87L103,165.48L107.9,152.25L112.8,183.33L117.71,183.06L122.61,183.21L127.52,144.44L132.42,175.03L137.33,173.98L142.23,125.11L147.14,135.72L152.04,144.93L156.95,126.84L161.85,124.18L166.75,165.79L171.66,169.22L176.56,135.95L181.47,169.54L186.37,130.57L191.28,136.11L196.18,144.31L201.09,126.43L205.99,141.49L210.9,117.07L215.8,143.15L220.7,150.02L225.61,121.21L230.51,154.22L235.42,134.05L240.32,150.66L245.23,100.15L250.13,131.77L255.04,143.81L259.94,102.48L264.85,115.11L269.75,113.17L274.65,130.92L279.56,92.76L284.46,102.1L289.37,99.67L294.27,89.09L299.18,111.77L304.08,116.9L308.99,105.3L313.89,122.36L318.8,93.33L323.7,124.28L328.6,112.29L333.51,80.5L338.41,95.17L343.32,77.88L348.22,107.8L353.13,105.87L358.03,115L362.94,98.11L367.84,103.92L372.75,76.47L377.65,89.12L382.55,92.55L387.46,96.51L392.36,70.97L397.27,87.27L402.17,108.71L407.08,94.21L411.98,97.74L416.89,73.48L421.79,106.9L426.7,57.63L431.6,83.54L436.5,58.76L441.41,109.23L446.31,54.42L451.22,83.2L456.12,101.8L461.03,74.54L465.93,46.47L470.84,68.19L475.74,97.29L480.65,83.95L485.55,41.63L485.55,18.5L480.65,60.82L475.74,74.16L470.84,45.06L465.93,23.34L456.12,78.67L451.22,60.07L446.31,31.29L441.41,86.1L436.5,35.63L431.6,60.41L426.7,34.5L421.79,83.78L416.89,50.35L411.98,74.61L407.08,71.08L402.17,85.58L397.27,64.14L392.36,47.84L387.46,73.39L382.55,69.42L377.65,65.99L372.75,53.35L367.84,80.79L362.94,74.98L358.03,91.87L353.13,82.74L348.22,84.67L343.32,54.76L338.41,72.04L333.51,57.37L328.6,89.16L323.7,101.15L318.8,70.2L313.89,99.23L308.99,82.17L304.08,93.77L299.18,88.64L294.27,65.96L289.37,76.54L284.46,78.97L279.56,69.64L274.65,107.79L269.75,90.04L264.85,91.98L259.94,79.35L255.04,120.68L250.13,108.65L245.23,77.02L240.32,127.53L235.42,110.92L230.51,131.09L225.61,98.08L220.7,126.89L215.8,120.02L210.9,93.94L205.99,118.36L201.09,103.3L196.18,121.18L191.28,112.98L186.37,107.44L181.47,146.41L176.56,112.82L171.66,146.09L166.75,142.66L161.85,101.05L156.95,103.71L152.04,121.8L147.14,112.59L142.23,101.98L137.33,150.85L132.42,151.9L127.52,121.32L122.61,160.08L117.71,159.93L112.8,160.2L107.9,129.12L103,142.35L98.09,118.74L93.19,124.1L88.28,167.1L83.38,155.09L78.47,123.56L73.57,128.37L68.66,153.25L63.76,158L58.85,167.05L53.95,120.42L49.05,132.59L44.14,152.3L39.24,163.23L34.33,135.83L29.43,146.8L24.52,175.7L19.62,185.87L14.71,180.9L9.81,145.52L4.9,142.46L0,183.74Z" style="fill: rgb(0, 128, 0); fill-opacity: 0.5; stroke-width: 0;"/></g></g><g class="errorbars"/><g class="lines"><path class="js-line" d="M0,206.87L4.9,165.59L9.81,168.65L14.71,204.03L19.62,209L24.52,198.83L29.43,169.93L34.33,158.96L39.24,186.36L44.14,175.43L49.05,155.71L53.95,143.55L58.85,190.18L63.76,181.13L68.66,176.38L73.57,151.49L78.47,146.69L83.38,178.22L88.28,190.23L93.19,147.23L98.09,141.87L103,165.48L107.9,152.25L112.8,183.33L117.71,183.06L122.61,183.21L127.52,144.44L132.42,175.03L137.33,173.98L142.23,125.11L147.14,135.72L152.04,144.93L156.95,126.84L161.85,124.18L166.75,165.79L171.66,169.22L176.56,135.95L181.47,169.54L186.37,130.57L191.28,136.11L196.18,144.31L201.09,126.43L205.99,141.49L210.9,117.07L215.8,143.15L220.7,150.02L225.61,121.21L230.51,154.22L235.42,134.05L240.32,150.66L245.23,100.15L250.13,131.77L255.04,143.81L259.94,102.48L264.85,115.11L269.75,113.17L274.65,130.92L279.56,92.76L284.46,102.1L289.37,99.67L294.27,89.09L299.18,111.77L304.08,116.9L308.99,105.3L313.89,122.36L318.8,93.33L323.7,124.28L328.6,112.29L333.51,80.5L338.41,95.17L343.32,77.88L348.22,107.8L353.13,105.87L358.03,115L362.94,98.11L367.84,103.92L372.75,76.47L377.65,89.12L382.55,92.55L387.46,96.51L392.36,70.97L397.27,87.27L402.17,108.71L407.08,94.21L411.98,97.74L416.89,73.48L421.79,106.9L426.7,57.63L431.6,83.54L436.5,58.76L441.41,109.23L446.31,54.42L451.22,83.2L456.12,101.8L461.03,74.54L465.93,46.47L470.84,68.19L475.74,97.29L480.65,83.95L485.55,41.63L485.55,18.5L480.65,60.82L475.74,74.16L470.84,45.06L465.93,23.34L456.12,78.67L451.22,60.07L446.31,31.29L441.41,86.1L436.5,35.63L431.6,60.41L426.7,34.5L421.79,83.78L416.89,50.35L411.98,74.61L407.08,71.08L402.17,85.58L397.27,64.14L392.36,47.84L387.46,73.39L382.55,69.42L377.65,65.99L372.75,53.35L367.84,80.79L362.94,74.98L358.03,91.87L353.13,82.74L348.22,84.67L343.32,54.76L338.41,72.04L333.51,57.37L328.6,89.16L323.7,101.15L318.8,70.2L313.89,99.23L308.99,82.17L304.08,93.77L299.18,88.64L294.27,65.96L289.37,76.54L284.46,78.97L279.56,69.64L274.65,107.79L269.75,90.04L264.85,91.98L259.94,79.35L255.04,120.68L250.13,108.65L245.23,77.02L240.32,127.53L235.42,110.92L230.51,131.09L225.61,98.08L220.7,126.89L215.8,120.02L210.9,93.94L205.99,118.36L201.09,103.3L196.18,121.18L191.28,112.98L186.37,107.44L181.47,146.41L176.56,112.82L171.66,146.09L166.75,142.66L161.85,101.05L156.95,103.71L152.04,121.8L147.14,112.59L142.23,101.98L137.33,150.85L132.42,151.9L127.52,121.32L122.61,160.08L117.71,159.93L112.8,160.2L107.9,129.12L103,142.35L98.09,118.74L93.19,124.1L88.28,167.1L83.38,155.09L78.47,123.56L73.57,128.37L68.66,153.25L63.76,158L58.85,167.05L53.95,120.42L49.05,132.59L44.14,152.3L39.24,163.23L34.33,135.83L29.43,146.8L24.52,175.7L19.62,185.87L14.71,180.9L9.81,145.52L4.9,142.46L0,183.74" style="vector-effect: non-scaling-stroke; fill: none; stroke: rgb(0, 128, 0); stroke-opacity: 1; stroke-width: 2px; opacity: 1;"/></g><g class="points"/><g class="text"/></g><g class="trace scatter trace8f5017" style="stroke-miterlimit: 2; opacity: 1;"><g class="fills"/><g class="errorbars"/><g class="lines"><path class="js-line" d="M0,195.31L4.9,154.03L9.81,157.09L14.71,192.46L19.62,197.44L24.52,187.26L29.43,158.37L34.33,147.39L39.24,174.8L44.14,163.86L49.05,144.15L53.95,131.99L58.85,178.62L63.76,169.57L68.66,164.81L73.57,139.93L78.47,135.13L83.38,166.66L88.28,178.67L93.19,135.67L98.09,130.3L103,153.91L107.9,140.69L112.8,171.77L117.71,171.49L122.61,171.65L127.52,132.88L132.42,163.47L137.33,162.41L142.23,113.54L147.14,124.15L152.04,133.37L156.95,115.27L161.85,112.61L166.75,154.23L171.66,157.65L176.56,124.39L181.47,157.97L186.37,119L191.28,124.55L196.18,132.74L201.09,114.87L205.99,129.92L210.9,105.51L215.8,131.59L220.7,138.46L225.61,109.64L230.51,142.65L235.42,122.49L240.32,139.09L245.23,88.58L250.13,120.21L255.04,132.25L259.94,90.91L264.85,103.54L269.75,101.61L274.65,119.36L279.56,81.2L284.46,90.53L289.37,88.1L294.27,77.53L299.18,100.21L304.08,105.34L308.99,93.73L313.89,110.8L318.8,81.76L323.7,112.72L328.6,100.73L333.51,68.93L338.41,83.61L343.32,66.32L348.22,96.23L353.13,94.3L358.03,103.44L362.94,86.55L367.84,92.36L372.75,64.91L377.65,77.56L382.55,80.99L387.46,84.95L392.36,59.41L397.27,75.71L402.17,97.14L407.08,82.65L411.98,86.18L416.89,61.92L421.79,95.34L426.7,46.06L431.6,71.98L436.5,47.2L441.41,97.67L446.31,42.86L451.22,71.63L456.12,90.23L461.03,62.98L465.93,34.9L470.84,56.62L475.74,85.72L480.65,72.39L485.55,30.06" style="vector-effect: non-scaling-stroke; fill: none; stroke: rgb(0, 0, 255); stroke-opacity: 1; stroke-width: 2px; opacity: 1;"/></g><g class="points"/><g class="text"/></g><g class="trace scatter trace6d1c2c" style="stroke-miterlimit: 2; opacity: 1;"><g class="fills"/><g class="errorbars"/><g class="lines"/><g class="points"><path class="point" transform="translate(245.23,77.02)" d="M6,0A6,6 0 1,1 0,-6A6,6 0 0,1 6,0Z" style="opacity: 1; stroke-width: 2px; fill: rgb(255, 0, 0); fill-opacity: 1; stroke: rgb(47, 79, 79); stroke-opacity: 1;"/><path class="point" transform="translate(259.94,79.35)" d="M6,0A6,6 0 1,1 0,-6A6,6 0 0,1 6,0Z" style="opacity: 1; stroke-width: 2px; fill: rgb(255, 0, 0); fill-opacity: 1; stroke: rgb(47, 79, 79); stroke-opacity: 1;"/><path class="point" transform="translate(279.56,69.64)" d="M6,0A6,6 0 1,1 0,-6A6,6 0 0,1 6,0Z" style="opacity: 1; stroke-width: 2px; fill: rgb(255, 0, 0); fill-opacity: 1; stroke: rgb(47, 79, 79); stroke-opacity: 1;"/><path class="point" transform="translate(284.46,78.97)" d="M6,0A6,6 0 1,1 0,-6A6,6 0 0,1 6,0Z" style="opacity: 1; stroke-width: 2px; fill: rgb(255, 0, 0); fill-opacity: 1; stroke: rgb(47, 79, 79); stroke-opacity: 1;"/><path class="point" transform="translate(289.37,76.54)" d="M6,0A6,6 0 1,1 0,-6A6,6 0 0,1 6,0Z" style="opacity: 1; stroke-width: 2px; fill: rgb(255, 0, 0); fill-opacity: 1; stroke: rgb(47, 79, 79); stroke-opacity: 1;"/><path class="point" transform="translate(294.27,65.96)" d="M6,0A6,6 0 1,1 0,-6A6,6 0 0,1 6,0Z" style="opacity: 1; stroke-width: 2px; fill: rgb(255, 0, 0); fill-opacity: 1; stroke: rgb(47, 79, 79); stroke-opacity: 1;"/><path class="point" transform="translate(308.99,82.17)" d="M6,0A6,6 0 1,1 0,-6A6,6 0 0,1 6,0Z" style="opacity: 1; stroke-width: 2px; fill: rgb(255, 0, 0); fill-opacity: 1; stroke: rgb(47, 79, 79); stroke-opacity: 1;"/><path class="point" transform="translate(318.8,70.2)" d="M6,0A6,6 0 1,1 0,-6A6,6 0 0,1 6,0Z" style="opacity: 1; stroke-width: 2px; fill: rgb(255, 0, 0); fill-opacity: 1; stroke: rgb(47, 79, 79); stroke-opacity: 1;"/><path class="point" transform="translate(333.51,57.37)" d="M6,0A6,6 0 1,1 0,-6A6,6 0 0,1 6,0Z" style="opacity: 1; stroke-width: 2px; fill: rgb(255, 0, 0); fill-opacity: 1; stroke: rgb(47, 79, 79); stroke-opacity: 1;"/><path class="point" transform="translate(338.41,72.04)" d="M6,0A6,6 0 1,1 0,-6A6,6 0 0,1 6,0Z" style="opacity: 1; stroke-width: 2px; fill: rgb(255, 0, 0); fill-opacity: 1; stroke: rgb(47, 79, 79); stroke-opacity: 1;"/><path class="point" transform="translate(343.32,54.76)" d="M6,0A6,6 0 1,1 0,-6A6,6 0 0,1 6,0Z" style="opacity: 1; stroke-width: 2px; fill: rgb(255, 0, 0); fill-opacity: 1; stroke: rgb(47, 79, 79); stroke-opacity: 1;"/><path class="point" transform="translate(348.22,84.67)" d="M6,0A6,6 0 1,1 0,-6A6,6 0 0,1 6,0Z" style="opacity: 1; stroke-width: 2px; fill: rgb(255, 0, 0); fill-opacity: 1; stroke: rgb(47, 79, 79); stroke-opacity: 1;"/><path class="point" transform="translate(353.13,82.74)" d="M6,0A6,6 0 1,1 0,-6A6,6 0 0,1 6,0Z" style="opacity: 1; stroke-width: 2px; fill: rgb(255, 0, 0); fill-opacity: 1; stroke: rgb(47, 79, 79); stroke-opacity: 1;"/><path class="point" transform="translate(362.94,74.98)" d="M6,0A6,6 0 1,1 0,-6A6,6 0 0,1 6,0Z" style="opacity: 1; stroke-width: 2px; fill: rgb(255, 0, 0); fill-opacity: 1; stroke: rgb(47, 79, 79); stroke-opacity: 1;"/><path class="point" transform="translate(367.84,80.79)" d="M6,0A6,6 0 1,1 0,-6A6,6 0 0,1 6,0Z" style="opacity: 1; stroke-width: 2px; fill: rgb(255, 0, 0); fill-opacity: 1; stroke: rgb(47, 79, 79); stroke-opacity: 1;"/><path class="point" transform="translate(372.75,53.35)" d="M6,0A6,6 0 1,1 0,-6A6,6 0 0,1 6,0Z" style="opacity: 1; stroke-width: 2px; fill: rgb(255, 0, 0); fill-opacity: 1; stroke: rgb(47, 79, 79); stroke-opacity: 1;"/><path class="point" transform="translate(377.65,65.99)" d="M6,0A6,6 0 1,1 0,-6A6,6 0 0,1 6,0Z" style="opacity: 1; stroke-width: 2px; fill: rgb(255, 0, 0); fill-opacity: 1; stroke: rgb(47, 79, 79); stroke-opacity: 1;"/><path class="point" transform="translate(382.55,69.42)" d="M6,0A6,6 0 1,1 0,-6A6,6 0 0,1 6,0Z" style="opacity: 1; stroke-width: 2px; fill: rgb(255, 0, 0); fill-opacity: 1; stroke: rgb(47, 79, 79); stroke-opacity: 1;"/><path class="point" transform="translate(387.46,73.39)" d="M6,0A6,6 0 1,1 0,-6A6,6 0 0,1 6,0Z" style="opacity: 1; stroke-width: 2px; fill: rgb(255, 0, 0); fill-opacity: 1; stroke: rgb(47, 79, 79); stroke-opacity: 1;"/><path class="point" transform="translate(392.36,47.84)" d="M6,0A6,6 0 1,1 0,-6A6,6 0 0,1 6,0Z" style="opacity: 1; stroke-width: 2px; fill: rgb(255, 0, 0); fill-opacity: 1; stroke: rgb(47, 79, 79); stroke-opacity: 1;"/><path class="point" transform="translate(397.27,64.14)" d="M6,0A6,6 0 1,1 0,-6A6,6 0 0,1 6,0Z" style="opacity: 1; stroke-width: 2px; fill: rgb(255, 0, 0); fill-opacity: 1; stroke: rgb(47, 79, 79); stroke-opacity: 1;"/><path class="point" transform="translate(402.17,85.58)" d="M6,0A6,6 0 1,1 0,-6A6,6 0 0,1 6,0Z" style="opacity: 1; stroke-width: 2px; fill: rgb(255, 0, 0); fill-opacity: 1; stroke: rgb(47, 79, 79); stroke-opacity: 1;"/><path class="point" transform="translate(407.08,71.08)" d="M6,0A6,6 0 1,1 0,-6A6,6 0 0,1 6,0Z" style="opacity: 1; stroke-width: 2px; fill: rgb(255, 0, 0); fill-opacity: 1; stroke: rgb(47, 79, 79); stroke-opacity: 1;"/><path class="point" transform="translate(411.98,74.61)" d="M6,0A6,6 0 1,1 0,-6A6,6 0 0,1 6,0Z" style="opacity: 1; stroke-width: 2px; fill: rgb(255, 0, 0); fill-opacity: 1; stroke: rgb(47, 79, 79); stroke-opacity: 1;"/><path class="point" transform="translate(416.89,50.35)" d="M6,0A6,6 0 1,1 0,-6A6,6 0 0,1 6,0Z" style="opacity: 1; stroke-width: 2px; fill: rgb(255, 0, 0); fill-opacity: 1; stroke: rgb(47, 79, 79); stroke-opacity: 1;"/><path class="point" transform="translate(421.79,83.78)" d="M6,0A6,6 0 1,1 0,-6A6,6 0 0,1 6,0Z" style="opacity: 1; stroke-width: 2px; fill: rgb(255, 0, 0); fill-opacity: 1; stroke: rgb(47, 79, 79); stroke-opacity: 1;"/><path class="point" transform="translate(426.7,34.5)" d="M6,0A6,6 0 1,1 0,-6A6,6 0 0,1 6,0Z" style="opacity: 1; stroke-width: 2px; fill: rgb(255, 0, 0); fill-opacity: 1; stroke: rgb(47, 79, 79); stroke-opacity: 1;"/><path class="point" transform="translate(431.6,60.41)" d="M6,0A6,6 0 1,1 0,-6A6,6 0 0,1 6,0Z" style="opacity: 1; stroke-width: 2px; fill: rgb(255, 0, 0); fill-opacity: 1; stroke: rgb(47, 79, 79); stroke-opacity: 1;"/><path class="point" transform="translate(436.5,35.63)" d="M6,0A6,6 0 1,1 0,-6A6,6 0 0,1 6,0Z" style="opacity: 1; stroke-width: 2px; fill: rgb(255, 0, 0); fill-opacity: 1; stroke: rgb(47, 79, 79); stroke-opacity: 1;"/><path class="point" transform="translate(441.41,86.1)" d="M6,0A6,6 0 1,1 0,-6A6,6 0 0,1 6,0Z" style="opacity: 1; stroke-width: 2px; fill: rgb(255, 0, 0); fill-opacity: 1; stroke: rgb(47, 79, 79); stroke-opacity: 1;"/><path class="point" transform="translate(446.31,31.29)" d="M6,0A6,6 0 1,1 0,-6A6,6 0 0,1 6,0Z" style="opacity: 1; stroke-width: 2px; fill: rgb(255, 0, 0); fill-opacity: 1; stroke: rgb(47, 79, 79); stroke-opacity: 1;"/><path class="point" transform="translate(451.22,60.07)" d="M6,0A6,6 0 1,1 0,-6A6,6 0 0,1 6,0Z" style="opacity: 1; stroke-width: 2px; fill: rgb(255, 0, 0); fill-opacity: 1; stroke: rgb(47, 79, 79); stroke-opacity: 1;"/><path class="point" transform="translate(456.12,78.67)" d="M6,0A6,6 0 1,1 0,-6A6,6 0 0,1 6,0Z" style="opacity: 1; stroke-width: 2px; fill: rgb(255, 0, 0); fill-opacity: 1; stroke: rgb(47, 79, 79); stroke-opacity: 1;"/><path class="point" transform="translate(461.03,51.41)" d="M6,0A6,6 0 1,1 0,-6A6,6 0 0,1 6,0Z" style="opacity: 1; stroke-width: 2px; fill: rgb(255, 0, 0); fill-opacity: 1; stroke: rgb(47, 79, 79); stroke-opacity: 1;"/><path class="point" transform="translate(465.93,23.34)" d="M6,0A6,6 0 1,1 0,-6A6,6 0 0,1 6,0Z" style="opacity: 1; stroke-width: 2px; fill: rgb(255, 0, 0); fill-opacity: 1; stroke: rgb(47, 79, 79); stroke-opacity: 1;"/><path class="point" transform="translate(470.84,45.06)" d="M6,0A6,6 0 1,1 0,-6A6,6 0 0,1 6,0Z" style="opacity: 1; stroke-width: 2px; fill: rgb(255, 0, 0); fill-opacity: 1; stroke: rgb(47, 79, 79); stroke-opacity: 1;"/><path class="point" transform="translate(475.74,74.16)" d="M6,0A6,6 0 1,1 0,-6A6,6 0 0,1 6,0Z" style="opacity: 1; stroke-width: 2px; fill: rgb(255, 0, 0); fill-opacity: 1; stroke: rgb(47, 79, 79); stroke-opacity: 1;"/><path class="point" transform="translate(480.65,60.82)" d="M6,0A6,6 0 1,1 0,-6A6,6 0 0,1 6,0Z" style="opacity: 1; stroke-width: 2px; fill: rgb(255, 0, 0); fill-opacity: 1; stroke: rgb(47, 79, 79); stroke-opacity: 1;"/><path class="point" transform="translate(485.55,18.5)" d="M6,0A6,6 0 1,1 0,-6A6,6 0 0,1 6,0Z" style="opacity: 1; stroke-width: 2px; fill: rgb(255, 0, 0); fill-opacity: 1; stroke: rgb(47, 79, 79); stroke-opacity: 1;"/></g><g class="text"/></g></g></g><g class="overplot"/><path class="xlines-above crisp" d="M0,0" style="fill: none;"/><path class="ylines-above crisp" d="M0,0" style="fill: none;"/><g class="overlines-above"/><g class="xaxislayer-above"><g class="xtick"><text text-anchor="middle" x="0" y="333" transform="translate(80,0)" style="font-family: 'Open Sans', verdana, arial, sans-serif; font-size: 12px; fill: rgb(42, 63, 95); fill-opacity: 1; white-space: pre;">0</text></g><g class="xtick"><text text-anchor="middle" x="0" y="333" transform="translate(178.09,0)" style="font-family: 'Open Sans', verdana, arial, sans-serif; font-size: 12px; fill: rgb(42, 63, 95); fill-opacity: 1; white-space: pre;">20</text></g><g class="xtick"><text text-anchor="middle" x="0" y="333" transform="translate(276.18,0)" style="font-family: 'Open Sans', verdana, arial, sans-serif; font-size: 12px; fill: rgb(42, 63, 95); fill-opacity: 1; white-space: pre;">40</text></g><g class="xtick"><text text-anchor="middle" x="0" y="333" transform="translate(374.27,0)" style="font-family: 'Open Sans', verdana, arial, sans-serif; font-size: 12px; fill: rgb(42, 63, 95); fill-opacity: 1; white-space: pre;">60</text></g><g class="xtick"><text text-anchor="middle" x="0" y="333" transform="translate(472.36,0)" style="font-family: 'Open Sans', verdana, arial, sans-serif; font-size: 12px; fill: rgb(42, 63, 95); fill-opacity: 1; white-space: pre;">80</text></g><g class="xtick"><text text-anchor="middle" x="0" y="333" transform="translate(570.45,0)" style="font-family: 'Open Sans', verdana, arial, sans-serif; font-size: 12px; fill: rgb(42, 63, 95); fill-opacity: 1; white-space: pre;">100</text></g></g><g class="yaxislayer-above"><g class="ytick"><text text-anchor="end" x="79" y="4.199999999999999" transform="translate(0,302.28)" style="font-family: 'Open Sans', verdana, arial, sans-serif; font-size: 12px; fill: rgb(42, 63, 95); fill-opacity: 1; white-space: pre;">0</text></g><g class="ytick"><text text-anchor="end" x="79" y="4.199999999999999" transform="translate(0,244.46)" style="font-family: 'Open Sans', verdana, arial, sans-serif; font-size: 12px; fill: rgb(42, 63, 95); fill-opacity: 1; white-space: pre;">1</text></g><g class="ytick"><text text-anchor="end" x="79" y="4.199999999999999" transform="translate(0,186.63)" style="font-family: 'Open Sans', verdana, arial, sans-serif; font-size: 12px; fill: rgb(42, 63, 95); fill-opacity: 1; white-space: pre;">2</text></g><g class="ytick"><text text-anchor="end" x="79" y="4.199999999999999" transform="translate(0,128.81)" style="font-family: 'Open Sans', verdana, arial, sans-serif; font-size: 12px; fill: rgb(42, 63, 95); fill-opacity: 1; white-space: pre;">3</text></g></g><g class="overaxes-above"/></g></g><g class="polarlayer"/><g class="ternarylayer"/><g class="geolayer"/><g class="funnelarealayer"/><g class="pielayer"/><g class="treemaplayer"/><g class="sunburstlayer"/><g class="glimages"/><defs id="topdefs-f32040"><g class="clips"/><clipPath id="legendf32040"><rect width="179" height="67" x="0" y="0"/></clipPath></defs><g class="layer-above"><g class="imagelayer"/><g class="shapelayer"><path data-index="0" fill-rule="evenodd" d="M80,186.63L599,186.63" clip-path="url('#clipf32040y')" style="opacity: 1; stroke: rgb(192, 3, 3); stroke-opacity: 1; fill: rgb(0, 0, 0); fill-opacity: 0; stroke-dasharray: 3px, 3px; stroke-width: 2px;"/></g></g><g class="infolayer"><g class="legend" pointer-events="all" transform="translate(609.38, 100)"><rect class="bg" shape-rendering="crispEdges" width="179" height="67" x="0" y="0" style="stroke: rgb(68, 68, 68); stroke-opacity: 1; fill: rgb(255, 255, 255); fill-opacity: 1; stroke-width: 0px;"/><g class="scrollbox" transform="translate(0, 0)" clip-path="url('#legendf32040')"><g class="groups"><g class="traces" transform="translate(0, 14.5)" style="opacity: 1;"><text class="legendtext" text-anchor="start" x="40" y="4.680000000000001" style="font-family: 'Open Sans', verdana, arial, sans-serif; font-size: 12px; fill: rgb(42, 63, 95); fill-opacity: 1; white-space: pre;">Accuracy</text><g class="layers" style="opacity: 1;"><g class="legendfill"><path class="js-fill" d="M5,-2h30v6h-30z" style="stroke-width: 0; fill: rgb(0, 128, 0); fill-opacity: 0.5;"/></g><g class="legendlines"><path class="js-line" d="M5,-2h30" style="fill: none; stroke: rgb(0, 128, 0); stroke-opacity: 1; stroke-width: 2px;"/></g><g class="legendsymbols"><g class="legendpoints"/></g></g><rect class="legendtoggle" x="0" y="-9.5" width="173.640625" height="19" style="fill: rgb(0, 0, 0); fill-opacity: 0;"/></g><g class="traces" transform="translate(0, 33.5)" style="opacity: 1;"><text class="legendtext" text-anchor="start" x="40" y="4.680000000000001" style="font-family: 'Open Sans', verdana, arial, sans-serif; font-size: 12px; fill: rgb(42, 63, 95); fill-opacity: 1; white-space: pre;">Series</text><g class="layers" style="opacity: 1;"><g class="legendfill"/><g class="legendlines"><path class="js-line" d="M5,0h30" style="fill: none; stroke: rgb(0, 0, 255); stroke-opacity: 1; stroke-width: 2px;"/></g><g class="legendsymbols"><g class="legendpoints"/></g></g><rect class="legendtoggle" x="0" y="-9.5" width="173.640625" height="19" style="fill: rgb(0, 0, 0); fill-opacity: 0;"/></g><g class="traces" transform="translate(0, 52.5)" style="opacity: 1;"><text class="legendtext" text-anchor="start" x="40" y="4.680000000000001" style="font-family: 'Open Sans', verdana, arial, sans-serif; font-size: 12px; fill: rgb(42, 63, 95); fill-opacity: 1; white-space: pre;">Outside limit accuracy</text><g class="layers" style="opacity: 1;"><g class="legendfill"/><g class="legendlines"/><g class="legendsymbols"><g class="legendpoints"><path class="scatterpts" transform="translate(20,0)" d="M6,0A6,6 0 1,1 0,-6A6,6 0 0,1 6,0Z" style="opacity: 1; stroke-width: 2px; fill: rgb(255, 0, 0); fill-opacity: 1; stroke: rgb(47, 79, 79); stroke-opacity: 1;"/></g></g></g><rect class="legendtoggle" x="0" y="-9.5" width="173.640625" height="19" style="fill: rgb(0, 0, 0); fill-opacity: 0;"/></g></g></g><rect class="scrollbar" rx="20" ry="3" width="0" height="0" x="0" y="0" style="fill: rgb(128, 139, 164); fill-opacity: 1;"/></g><g class="g-gtitle"><text class="gtitle" x="40" y="50" text-anchor="start" dy="0em" style="font-family: 'Open Sans', verdana, arial, sans-serif; font-size: 17px; fill: rgb(42, 63, 95); opacity: 1; font-weight: normal; white-space: pre;">Percentage out-of-bounds (accuracy) (score=39%)</text></g><g class="g-xtitle"><text class="xtitle" x="339.5" y="360.3" text-anchor="middle" style="font-family: 'Open Sans', verdana, arial, sans-serif; font-size: 14px; fill: rgb(42, 63, 95); opacity: 1; font-weight: normal; white-space: pre;">Time</text></g><g class="g-ytitle"><text class="ytitle" transform="rotate(-90,46.559375,210)" x="46.559375" y="210" text-anchor="middle" style="font-family: 'Open Sans', verdana, arial, sans-serif; font-size: 14px; fill: rgb(42, 63, 95); opacity: 1; font-weight: normal; white-space: pre;">Value</text></g></g></svg>