<svg class="main-svg" xmlns="http://www.w3.org/2000/svg" xmlns:xlink="http://www.w3.org/1999/xlink" width="800" height="400" style="" viewBox="0 0 800 400"><rect x="0" y="0" width="800" height="400" style="fill: rgb(255, 255, 255); fill-opacity: 1;"/><defs id="defs-c6ff57"><g class="clips"><clipPath id="clipc6ff57xyplot" class="plotclip"><rect width="601" height="220"/></clipPath><clipPath class="axesclip" id="clipc6ff57x"><rect x="80" y="0" width="601" height="400"/></clipPath><clipPath class="axesclip" id="clipc6ff57y"><rect x="0" y="100" width="800" height="220"/></clipPath><clipPath class="axesclip" id="clipc6ff57xy"><rect x="80" y="100" width="601" height="220"/></clipPath></g><g class="gradients"/></defs><g class="bglayer"><rect class="bg" x="80" y="100" width="601" height="220" style="fill: rgb(229, 236, 246); fill-opacity: 1; stroke-width: 0;"/></g><g class="layer-below"><g class="imagelayer"/><g class="shapelayer"/></g><g class="cartesianlayer"><g class="subplot xy"><g class="layer-subplot"><g class="shapelayer"/><g class="imagelayer"/></g><g class="gridlayer"><g class="x"><path class="xgrid crisp" transform="translate(200,0)" d="M0,100v220" style="stroke: rgb(255, 255, 255); stroke-opacity: 1; stroke-width: 1px;"/><path class="xgrid crisp" transform="translate(320,0)" d="M0,100v220" style="stroke: rgb(255, 255, 255); stroke-opacity: 1; stroke-width: 1px;"/><path class="xgrid crisp" transform="translate(440,0)" d="M0,100v220" style="stroke: rgb(255, 255, 255); stroke-opacity: 1; stroke-width: 1px;"/><path class="xgrid crisp" transform="translate(560,0)" d="M0,100v220" style="stroke: rgb(255, 255, 255); stroke-opacity: 1; stroke-width: 1px;"/></g><g class="y"><path class="ygrid crisp" transform="translate(0,207.20999999999998)" d="M80,0h601" style="stroke: rgb(255, 255, 255); stroke-opacity: 1; stroke-width: 1px;"/><path class="ygrid crisp" transform="translate(0,140.91)" d="M80,0h601" style="stroke: rgb(255, 255, 255); stroke-opacity: 1; stroke-width: 1px;"/></g></g><g class="zerolinelayer"><path class="xzl zl crisp" transform="translate(80,0)" d="M0,100v220" style="stroke: rgb(255, 255, 255); stroke-opacity: 1; stroke-width: 2px;"/><path class="yzl zl crisp" transform="translate(0,273.51)" d="M80,0h601" style="stroke: rgb(255, 255, 255); stroke-opacity: 1; stroke-width: 2px;"/></g><path class="xlines-below"/><path class="ylines-below"/><g class="overlines-below"/><g class="xaxislayer-below"/><g class="yaxislayer-below"/><g class="overaxes-below"/><g class="plot" transform="translate(80, 100)" clip-path="url('#clipc6ff57xyplot')"><g class="scatterlayer mlayer"><g class="trace scatter traced0c1f8" style="stroke-miterlimit: 2;"><g class="fills"><g><path class="js-fill" d="M0,168.01L6,151.61L12,128.19L18,133.94L24,131.39L30,174.21L36,146.32L42,132.79L48,136.69L54,138.16L60,132.49L66,155.39L72,167.4L78,131.77L84,123.63L90,138.81L96,144.59L102,118.73L108,140.85L114,155.8L120,124.69L126,146.57L132,145.65L138,144.25L144,134.9L150,103.56L156,124.14L162,153.27L168,139.76L174,150.78L180,150.71L186,156.85L192,147.05L198,116.8L204,132.97L210,123.47L216,139.17L222,147.22L228,152.7L234,143.95L240,147.93L246,162.45L252,134.03L258,108.93L264,123.08L270,130.03L276,144.39L282,147.54L288,169.41L294,175.85L300,152.63L306,149.85L312,158.35L318,132.02L324,133.1L330,134.99L336,130.54L348,153.02L354,126.77L360,167.19L366,119.79L372,129.03L378,127.37L384,148.65L390,160.29L396,124.15L402,139.15L408,171.69L414,134.9L420,155.72L426,143.87L432,140.37L438,138.47L444,133.64L450,21.86L456,64.82L462,59.62L468,50.32L474,57.29L480,11L486,63.73L492,32.24L498,45.34L504,40.36L510,55.78L516,19.25L522,58.72L528,18.86L534,49.62L540,33.08L546,37.39L552,19.15L558,71.34L564,28.29L570,37.45L576,47.62L582,42.1L588,22.91L594,46.91L594,179.5L588,155.51L582,174.69L576,180.21L570,170.04L564,160.88L558,203.93L552,151.74L546,169.98L540,165.68L534,182.21L528,151.45L522,191.31L516,151.85L510,188.37L504,172.95L498,177.93L492,164.84L486,196.33L480,143.59L474,189.89L468,182.91L462,192.21L456,197.42L450,154.45L444,166.79L438,171.61L432,173.52L426,177.02L420,188.87L414,168.05L408,204.84L402,172.3L396,157.3L390,193.44L384,181.79L378,160.52L372,162.18L366,152.94L360,200.34L354,159.91L348,186.17L336,163.69L330,168.14L324,166.24L318,165.17L312,191.49L306,183L300,185.78L294,209L288,202.56L282,180.69L276,177.54L270,163.18L264,156.23L258,142.07L252,167.17L246,195.6L240,181.08L234,177.1L228,185.85L222,180.37L216,172.32L210,156.62L204,166.12L198,149.95L192,180.2L186,190L180,183.85L174,183.93L168,172.91L162,186.42L156,157.29L150,136.71L144,168.05L138,177.4L132,178.8L126,179.71L120,157.84L114,188.95L108,174L102,151.88L96,177.74L90,171.96L84,156.77L78,164.91L72,200.55L66,188.54L60,165.64L54,171.31L48,169.84L42,165.94L36,179.46L30,207.36L24,164.54L18,167.09L12,161.34L6,184.75L0,201.16Z" style="fill: rgb(0, 0, 0); fill-opacity: 0.5; stroke-width: 0;"/></g></g><g class="errorbars"/><g class="lines"><path class="js-line" d="M0,201.16L6,184.75L12,161.34L18,167.09L24,164.54L30,207.36L36,179.46L42,165.94L48,169.84L54,171.31L60,165.64L66,188.54L72,200.55L78,164.91L84,156.77L90,171.96L96,177.74L102,151.88L108,174L114,188.95L120,157.84L126,179.71L132,178.8L138,177.4L144,168.05L150,136.71L156,157.29L162,186.42L168,172.91L174,183.93L180,183.85L186,190L192,180.2L198,149.95L204,166.12L210,156.62L216,172.32L222,180.37L228,185.85L234,177.1L240,181.08L246,195.6L252,167.17L258,142.07L264,156.23L270,163.18L276,177.54L282,180.69L288,202.56L294,209L300,185.78L306,183L312,191.49L318,165.17L324,166.24L330,168.14L336,163.69L348,186.17L354,159.91L360,200.34L366,152.94L372,162.18L378,160.52L384,181.79L390,193.44L396,157.3L402,172.3L408,204.84L414,168.05L420,188.87L426,177.02L432,173.52L438,171.61L444,166.79L450,154.45L456,197.42L462,192.21L468,182.91L474,189.89L480,143.59L486,196.33L492,164.84L498,177.93L504,172.95L510,188.37L516,151.85L522,191.31L528,151.45L534,182.21L540,165.68L546,169.98L552,151.74L558,203.93L564,160.88L570,170.04L576,180.21L582,174.69L588,155.51L594,179.5" style="vector-effect: non-scaling-stroke; fill: none; stroke: rgb(0, 0, 255); stroke-opacity: 1; stroke-width: 2px; opacity: 1;"/></g><g class="points"/><g class="text"/></g><g class="trace scatter trace7cb120" style="stroke-miterlimit: 2;"><g class="fills"/><g class="errorbars"/><g class="lines"><path class="js-line" d="M0,168.01L6,151.61L12,128.19L18,133.94L24,131.39L30,174.21L36,146.32L42,132.79L48,136.69L54,138.16L60,132.49L66,155.39L72,167.4L78,131.77L84,123.63L90,138.81L96,144.59L102,118.73L108,140.85L114,155.8L120,124.69L126,146.57L132,145.65L138,144.25L144,134.9L150,103.56L156,124.14L162,153.27L168,139.76L174,150.78L180,150.71L186,156.85L192,147.05L198,116.8L204,132.97L210,123.47L216,139.17L222,147.22L228,152.7L234,143.95L240,147.93L246,162.45L252,134.03L258,108.93L264,123.08L270,130.03L276,144.39L282,147.54L288,169.41L294,175.85L300,152.63L306,149.85L312,158.35L318,132.02L324,133.1L330,134.99L336,130.54L348,153.02L354,126.77L360,167.19L366,119.79L372,129.03L378,127.37L384,148.65L390,160.29L396,124.15L402,139.15L408,171.69L414,134.9L420,155.72L426,143.87L432,140.37L438,138.47L444,133.64L450,21.86L456,64.82L462,59.62L468,50.32L474,57.29L480,11L486,63.73L492,32.24L498,45.34L504,40.36L510,55.78L516,19.25L522,58.72L528,18.86L534,49.62L540,33.08L546,37.39L552,19.15L558,71.34L564,28.29L570,37.45L576,47.62L582,42.1L588,22.91L594,46.91" style="vector-effect: non-scaling-stroke; fill: none; stroke: rgb(0, 0, 0); stroke-opacity: 1; stroke-width: 2px; opacity: 1;"/></g><g class="points"/><g class="text"/></g></g></g><g class="overplot"/><path class="xlines-above crisp" d="M0,0" style="fill: none;"/><path class="ylines-above crisp" d="M0,0" style="fill: none;"/><g class="overlines-above"/><g class="xaxislayer-above"><g class="xtick"><text text-anchor="middle" x="0" y="333" transform="translate(80,0)" style="font-family: 'Open Sans', verdana, arial, sans-serif; font-size: 12px; fill: rgb(42, 63, 95); fill-opacity: 1; white-space: pre;">0</text></g><g class="xtick"><text text-anchor="middle" x="0" y="333" transform="translate(200,0)" style="font-family: 'Open Sans', verdana, arial, sans-serif; font-size: 12px; fill: rgb(42, 63, 95); fill-opacity: 1; white-space: pre;">20</text></g><g class="xtick"><text text-anchor="middle" x="0" y="333" transform="translate(320,0)" style="font-family: 'Open Sans', verdana, arial, sans-serif; font-size: 12px; fill: rgb(42, 63, 95); fill-opacity: 1; white-space: pre;">40</text></g><g class="xtick"><text text-anchor="middle" x="0" y="333" transform="translate(440,0)" style="font-family: 'Open Sans', verdana, arial, sans-serif; font-size: 12px; fill: rgb(42, 63, 95); fill-opacity: 1; white-space: pre;">60</text></g><g class="xtick"><text text-anchor="middle" x="0" y="333" transform="translate(560,0)" style="font-family: 'Open Sans', verdana, arial, sans-serif; font-size: 12px; fill: rgb(42, 63, 95); fill-opacity: 1; white-space: pre;">80</text></g><g class="xtick"><text text-anchor="middle" x="0" y="333" transform="translate(680,0)" style="font-family: 'Open Sans', verdana, arial, sans-serif; font-size: 12px; fill: rgb(42, 63, 95); fill-opacity: 1; white-space: pre;">100</text></g></g><g class="yaxislayer-above"><g class="ytick"><text text-anchor="end" x="79" y="4.199999999999999" transform="translate(0,273.51)" style="font-family: 'Open Sans', verdana, arial, sans-serif; font-size: 12px; fill: rgb(42, 63, 95); fill-opacity: 1; white-space: pre;">0</text></g><g class="ytick"><text text-anchor="end" x="79" y="4.199999999999999" transform="translate(0,207.20999999999998)" style="font-family: 'Open Sans', verdana, arial, sans-serif; font-size: 12px; fill: rgb(42, 63, 95); fill-opacity: 1; white-space: pre;">2</text></g><g class="ytick"><text text-anchor="end" x="79" y="4.199999999999999" transform="translate(0,140.91)" style="font-family: 'Open Sans', verdana, arial, sans-serif; font-size: 12px; fill: rgb(42, 63, 95); fill-opacity: 1; white-space: pre;">4</text></g></g><g class="overaxes-above"/></g></g><g class="polarlayer"/><g class="ternarylayer"/><g class="geolayer"/><g class="funnelarealayer"/><g class="pielayer"/><g class="treemaplayer"/><g class="sunburstlayer"/><g class="glimages"/><defs id="topdefs-c6ff57"><g class="clips"/><clipPath id="legendc6ff57"><rect width="95" height="48" x="0" y="0"/></clipPath></defs><g class="layer-above"><g class="imagelayer"/><g class="shapelayer"><path data-index="0" fill-rule="evenodd" d="M530,320H680V100H530Z" clip-path="url('#clipc6ff57x')" style="opacity: 1; stroke: rgb(255, 0, 0); stroke-opacity: 1; fill: rgb(0, 0, 0); fill-opacity: 0; stroke-width: 2px;"/></g></g><g class="infolayer"><g class="legend" pointer-events="all" transform="translate(693.02, 100)"><rect class="bg" shape-rendering="crispEdges" width="95" height="48" x="0" y="0" style="stroke: rgb(68, 68, 68); stroke-opacity: 1; fill: rgb(255, 255, 255); fill-opacity: 1; stroke-width: 0px;"/><g class="scrollbox" transform="translate(0, 0)" clip-path="url('#legendc6ff57')"><g class="groups"><g class="traces" transform="translate(0, 14.5)" style="opacity: 1;"><text class="legendtext" text-anchor="start" x="40" y="4.680000000000001" style="font-family: 'Open Sans', verdana, arial, sans-serif; font-size: 12px; fill: rgb(42, 63, 95); fill-opacity: 1; white-space: pre;">Series 2</text><g class="layers"><g class="legendfill"><path class="js-fill" d="M5,-2h30v6h-30z" style="stroke-width: 0; fill: rgb(0, 0, 0); fill-opacity: 0.5;"/></g><g class="legendlines"><path class="js-line" d="M5,-2h30" style="fill: none; stroke: rgb(0, 0, 0); stroke-opacity: 1; stroke-width: 2px;"/></g><g class="legendsymbols"><g class="legendpoints"/></g></g><rect class="legendtoggle" x="0" y="-9.5" width="89.015625" height="19" style="fill: rgb(0, 0, 0); fill-opacity: 0;"/></g><g class="traces" transform="translate(0, 33.5)" style="opacity: 1;"><text class="legendtext" text-anchor="start" x="40" y="4.680000000000001" style="font-family: 'Open Sans', verdana, arial, sans-serif; font-size: 12px; fill: rgb(42, 63, 95); fill-opacity: 1; white-space: pre;">Series 1</text><g class="layers"><g class="legendfill"/><g class="legendlines"><path class="js-line" d="M5,0h30" style="fill: none; stroke: rgb(0, 0, 255); stroke-opacity: 1; stroke-width: 2px;"/></g><g class="legendsymbols"><g class="legendpoints"/></g></g><rect class="legendtoggle" x="0" y="-9.5" width="89.015625" height="19" style="fill: rgb(0, 0, 0); fill-opacity: 0;"/></g></g></g><rect class="scrollbar" rx="20" ry="3" width="0" height="0" x="0" y="0" style="fill: rgb(128, 139, 164); fill-opacity: 1;"/></g><g class="g-gtitle"><text class="gtitle" x="40" y="50" text-anchor="start" dy="0em" style="font-family: 'Open Sans', verdana, arial, sans-serif; font-size: 17px; fill: rgb(42, 63, 95); opacity: 1; font-weight: normal; white-space: pre;">Redundant Sensor Outlier</text></g><g class="g-xtitle"><text class="xtitle" x="380.5" y="360.3" text-anchor="middle" style="font-family: 'Open Sans', verdana, arial, sans-serif; font-size: 14px; fill: rgb(42, 63, 95); opacity: 1; font-weight: normal; white-space: pre;">Time</text></g><g class="g-ytitle"><text class="ytitle" transform="rotate(-90,46.559375,210)" x="46.559375" y="210" text-anchor="middle" style="font-family: 'Open Sans', verdana, arial, sans-serif; font-size: 14px; fill: rgb(42, 63, 95); opacity: 1; font-weight: normal; white-space: pre;">Value</text></g></g></svg>