<svg class="main-svg" xmlns="http://www.w3.org/2000/svg" xmlns:xlink="http://www.w3.org/1999/xlink" width="800" height="400" style="" viewBox="0 0 800 400"><rect x="0" y="0" width="800" height="400" style="fill: rgb(255, 255, 255); fill-opacity: 1;"/><defs id="defs-9e5b5c"><g class="clips"><clipPath id="clip9e5b5cxyplot" class="plotclip"><rect width="601" height="220"/></clipPath><clipPath class="axesclip" id="clip9e5b5cx"><rect x="80" y="0" width="601" height="400"/></clipPath><clipPath class="axesclip" id="clip9e5b5cy"><rect x="0" y="100" width="800" height="220"/></clipPath><clipPath class="axesclip" id="clip9e5b5cxy"><rect x="80" y="100" width="601" height="220"/></clipPath></g><g class="gradients"/></defs><g class="bglayer"><rect class="bg" x="80" y="100" width="601" height="220" style="fill: rgb(229, 236, 246); fill-opacity: 1; stroke-width: 0;"/></g><g class="layer-below"><g class="imagelayer"/><g class="shapelayer"/></g><g class="cartesianlayer"><g class="subplot xy"><g class="layer-subplot"><g class="shapelayer"/><g class="imagelayer"/></g><g class="gridlayer"><g class="x"><path class="xgrid crisp" transform="translate(200,0)" d="M0,100v220" style="stroke: rgb(255, 255, 255); stroke-opacity: 1; stroke-width: 1px;"/><path class="xgrid crisp" transform="translate(320,0)" d="M0,100v220" style="stroke: rgb(255, 255, 255); stroke-opacity: 1; stroke-width: 1px;"/><path class="xgrid crisp" transform="translate(440,0)" d="M0,100v220" style="stroke: rgb(255, 255, 255); stroke-opacity: 1; stroke-width: 1px;"/><path class="xgrid crisp" transform="translate(560,0)" d="M0,100v220" style="stroke: rgb(255, 255, 255); stroke-opacity: 1; stroke-width: 1px;"/></g><g class="y"><path class="ygrid crisp" transform="translate(0,305.44)" d="M80,0h601" style="stroke: rgb(255, 255, 255); stroke-opacity: 1; stroke-width: 1px;"/><path class="ygrid crisp" transform="translate(0,240.38)" d="M80,0h601" style="stroke: rgb(255, 255, 255); stroke-opacity: 1; stroke-width: 1px;"/><path class="ygrid crisp" transform="translate(0,110.28)" d="M80,0h601" style="stroke: rgb(255, 255, 255); stroke-opacity: 1; stroke-width: 1px;"/></g></g><g class="zerolinelayer"><path class="xzl zl crisp" transform="translate(80,0)" d="M0,100v220" style="stroke: rgb(255, 255, 255); stroke-opacity: 1; stroke-width: 2px;"/><path class="yzl zl crisp" transform="translate(0,175.32999999999998)" d="M80,0h601" style="stroke: rgb(255, 255, 255); stroke-opacity: 1; stroke-width: 2px;"/></g><path class="xlines-below"/><path class="ylines-below"/><g class="overlines-below"/><g class="xaxislayer-below"/><g class="yaxislayer-below"/><g class="overaxes-below"/><g class="plot" transform="translate(80, 100)" clip-path="url('#clip9e5b5cxyplot')"><g class="scatterlayer mlayer"><g class="trace scatter trace58baf2" style="stroke-miterlimit: 2;"><g class="fills"><g><path class="js-fill" d="M0,19.78L6,61.28L12,19.31L18,66.78L24,58.1L30,34.29L36,65.12L42,25.92L48,50.79L54,37.96L60,48.41L66,53.22L72,35.48L78,32.76L84,35.91L90,24.32L96,36.52L102,20.38L108,25.39L114,21.32L120,29.27L126,48.29L132,21.58L138,72.56L144,35.51L150,69.95L156,11L162,55.79L168,48.06L174,36.56L180,73.55L186,47.58L192,34.98L198,38.06L204,70.43L210,33.96L216,62.66L222,38.87L228,53.53L234,40.19L240,13.91L246,33.37L252,29.25L258,60.29L264,33.69L270,12.97L276,30.73L282,28.54L288,51.24L294,43.05L300,36.33L306,18.75L312,17.63L318,59.66L324,52L330,87.78L336,49.56L342,44.92L348,53.59L354,65.41L360,81.89L366,71.6L372,76.67L378,120.31L384,122.47L390,86.65L396,64.93L402,111.99L408,101.38L414,105.17L420,123.77L426,128L432,100.73L438,145.12L444,141.11L450,111.79L456,151.5L462,145.21L468,147.88L474,130.75L480,144.93L486,158.33L492,169.69L498,139.26L504,127.41L510,160.96L516,179.74L522,164.8L528,162.84L534,175.56L540,156.55L546,187.47L552,175.05L558,206.25L564,168.52L570,178.38L576,201.16L582,181.81L588,209L594,193.02L594,66.17L588,85.4L582,61.46L576,84.06L570,64.54L564,57.93L558,98.91L552,70.97L546,86.64L540,58.97L534,81.23L528,71.76L522,76.98L516,95.17L510,79.64L504,49.34L498,64.44L492,98.13L486,90.02L480,79.87L474,68.95L468,89.33L462,89.91L456,99.46L450,63L444,95.57L438,102.83L432,61.7L426,92.22L420,91.24L414,75.9L408,75.36L402,89.22L396,45.42L390,70.38L384,109.46L378,110.55L372,70.16L366,68.35L360,81.89L354,68.66L348,60.09L342,54.68L336,62.57L330,104.05L324,71.51L318,82.43L312,43.66L306,48.02L300,68.86L294,75.58L288,83.76L282,61.07L276,63.26L270,45.5L264,66.22L258,92.82L252,61.78L246,65.9L240,46.44L234,72.72L228,86.06L222,71.4L216,95.18L210,66.49L204,102.96L198,70.58L192,67.51L186,80.11L180,106.07L174,69.08L168,80.59L162,88.31L156,43.53L150,102.47L144,68.04L138,105.09L132,54.11L126,80.82L120,61.8L114,53.85L108,57.92L102,52.91L96,69.05L90,56.85L84,68.43L78,65.29L72,68.01L66,85.74L60,80.94L54,70.48L48,83.31L42,58.45L36,97.65L30,66.82L24,90.63L18,99.31L12,51.84L6,93.81L0,52.31Z" style="fill: rgb(0, 0, 0); fill-opacity: 0.5; stroke-width: 0;"/></g></g><g class="errorbars"/><g class="lines"><path class="js-line" d="M0,52.31L6,93.81L12,51.84L18,99.31L24,90.63L30,66.82L36,97.65L42,58.45L48,83.31L54,70.48L60,80.94L66,85.74L72,68.01L78,65.29L84,68.43L90,56.85L96,69.05L102,52.91L108,57.92L114,53.85L120,61.8L126,80.82L132,54.11L138,105.09L144,68.04L150,102.47L156,43.53L162,88.31L168,80.59L174,69.08L180,106.07L186,80.11L192,67.51L198,70.58L204,102.96L210,66.49L216,95.18L222,71.4L228,86.06L234,72.72L240,46.44L246,65.9L252,61.78L258,92.82L264,66.22L270,45.5L276,63.26L282,61.07L288,83.76L294,75.58L300,68.86L306,48.02L312,43.66L318,82.43L324,71.51L330,104.05L336,62.57L342,54.68L348,60.09L354,68.66L360,81.89L366,68.35L372,70.16L378,110.55L384,109.46L390,70.38L396,45.42L402,89.22L408,75.36L414,75.9L420,91.24L426,92.22L432,61.7L438,102.83L444,95.57L450,63L456,99.46L462,89.91L468,89.33L474,68.95L480,79.87L486,90.02L492,98.13L498,64.44L504,49.34L510,79.64L516,95.17L522,76.98L528,71.76L534,81.23L540,58.97L546,86.64L552,70.97L558,98.91L564,57.93L570,64.54L576,84.06L582,61.46L588,85.4L594,66.17" style="vector-effect: non-scaling-stroke; fill: none; stroke: rgb(0, 0, 255); stroke-opacity: 1; stroke-width: 2px; opacity: 1;"/></g><g class="points"/><g class="text"/></g><g class="trace scatter trace8b5f7f" style="stroke-miterlimit: 2;"><g class="fills"/><g class="errorbars"/><g class="lines"><path class="js-line" d="M0,19.78L6,61.28L12,19.31L18,66.78L24,58.1L30,34.29L36,65.12L42,25.92L48,50.79L54,37.96L60,48.41L66,53.22L72,35.48L78,32.76L84,35.91L90,24.32L96,36.52L102,20.38L108,25.39L114,21.32L120,29.27L126,48.29L132,21.58L138,72.56L144,35.51L150,69.95L156,11L162,55.79L168,48.06L174,36.56L180,73.55L186,47.58L192,34.98L198,38.06L204,70.43L210,33.96L216,62.66L222,38.87L228,53.53L234,40.19L240,13.91L246,33.37L252,29.25L258,60.29L264,33.69L270,12.97L276,30.73L282,28.54L288,51.24L294,43.05L300,36.33L306,18.75L312,17.63L318,59.66L324,52L330,87.78L336,49.56L342,44.92L348,53.59L354,65.41L360,81.89L366,71.6L372,76.67L378,120.31L384,122.47L390,86.65L396,64.93L402,111.99L408,101.38L414,105.17L420,123.77L426,128L432,100.73L438,145.12L444,141.11L450,111.79L456,151.5L462,145.21L468,147.88L474,130.75L480,144.93L486,158.33L492,169.69L498,139.26L504,127.41L510,160.96L516,179.74L522,164.8L528,162.84L534,175.56L540,156.55L546,187.47L552,175.05L558,206.25L564,168.52L570,178.38L576,201.16L582,181.81L588,209L594,193.02" style="vector-effect: non-scaling-stroke; fill: none; stroke: rgb(0, 0, 0); stroke-opacity: 1; stroke-width: 2px; opacity: 1;"/></g><g class="points"/><g class="text"/></g></g></g><g class="overplot"/><path class="xlines-above crisp" d="M0,0" style="fill: none;"/><path class="ylines-above crisp" d="M0,0" style="fill: none;"/><g class="overlines-above"/><g class="xaxislayer-above"><g class="xtick"><text text-anchor="middle" x="0" y="333" transform="translate(80,0)" style="font-family: 'Open Sans', verdana, arial, sans-serif; font-size: 12px; fill: rgb(42, 63, 95); fill-opacity: 1; white-space: pre;">0</text></g><g class="xtick"><text text-anchor="middle" x="0" y="333" transform="translate(200,0)" style="font-family: 'Open Sans', verdana, arial, sans-serif; font-size: 12px; fill: rgb(42, 63, 95); fill-opacity: 1; white-space: pre;">20</text></g><g class="xtick"><text text-anchor="middle" x="0" y="333" transform="translate(320,0)" style="font-family: 'Open Sans', verdana, arial, sans-serif; font-size: 12px; fill: rgb(42, 63, 95); fill-opacity: 1; white-space: pre;">40</text></g><g class="xtick"><text text-anchor="middle" x="0" y="333" transform="translate(440,0)" style="font-family: 'Open Sans', verdana, arial, sans-serif; font-size: 12px; fill: rgb(42, 63, 95); fill-opacity: 1; white-space: pre;">60</text></g><g class="xtick"><text text-anchor="middle" x="0" y="333" transform="translate(560,0)" style="font-family: 'Open Sans', verdana, arial, sans-serif; font-size: 12px; fill: rgb(42, 63, 95); fill-opacity: 1; white-space: pre;">80</text></g><g class="xtick"><text text-anchor="middle" x="0" y="333" transform="translate(680,0)" style="font-family: 'Open Sans', verdana, arial, sans-serif; font-size: 12px; fill: rgb(42, 63, 95); fill-opacity: 1; white-space: pre;">100</text></g></g><g class="yaxislayer-above"><g class="ytick"><text text-anchor="end" x="79" y="4.199999999999999" transform="translate(0,305.44)" style="font-family: 'Open Sans', verdana, arial, sans-serif; font-size: 12px; fill: rgb(42, 63, 95); fill-opacity: 1; white-space: pre;">−4</text></g><g class="ytick"><text text-anchor="end" x="79" y="4.199999999999999" transform="translate(0,240.38)" style="font-family: 'Open Sans', verdana, arial, sans-serif; font-size: 12px; fill: rgb(42, 63, 95); fill-opacity: 1; white-space: pre;">−2</text></g><g class="ytick"><text text-anchor="end" x="79" y="4.199999999999999" transform="translate(0,175.32999999999998)" style="font-family: 'Open Sans', verdana, arial, sans-serif; font-size: 12px; fill: rgb(42, 63, 95); fill-opacity: 1; white-space: pre;">0</text></g><g class="ytick"><text text-anchor="end" x="79" y="4.199999999999999" transform="translate(0,110.28)" style="font-family: 'Open Sans', verdana, arial, sans-serif; font-size: 12px; fill: rgb(42, 63, 95); fill-opacity: 1; white-space: pre;">2</text></g></g><g class="overaxes-above"/></g></g><g class="polarlayer"/><g class="ternarylayer"/><g class="geolayer"/><g class="funnelarealayer"/><g class="pielayer"/><g class="treemaplayer"/><g class="sunburstlayer"/><g class="glimages"/><defs id="topdefs-9e5b5c"><g class="clips"/><clipPath id="legend9e5b5c"><rect width="95" height="48" x="0" y="0"/></clipPath></defs><g class="layer-above"><g class="imagelayer"/><g class="shapelayer"><path data-index="0" fill-rule="evenodd" d="M440,320H680V100H440Z" clip-path="url('#clip9e5b5cx')" style="opacity: 1; stroke: rgb(255, 0, 0); stroke-opacity: 1; fill: rgb(0, 0, 0); fill-opacity: 0; stroke-width: 2px;"/></g></g><g class="infolayer"><g class="legend" pointer-events="all" transform="translate(693.02, 100)"><rect class="bg" shape-rendering="crispEdges" width="95" height="48" x="0" y="0" style="stroke: rgb(68, 68, 68); stroke-opacity: 1; fill: rgb(255, 255, 255); fill-opacity: 1; stroke-width: 0px;"/><g class="scrollbox" transform="translate(0, 0)" clip-path="url('#legend9e5b5c')"><g class="groups"><g class="traces" transform="translate(0, 14.5)" style="opacity: 1;"><text class="legendtext" text-anchor="start" x="40" y="4.680000000000001" style="font-family: 'Open Sans', verdana, arial, sans-serif; font-size: 12px; fill: rgb(42, 63, 95); fill-opacity: 1; white-space: pre;">Series 2</text><g class="layers"><g class="legendfill"><path class="js-fill" d="M5,-2h30v6h-30z" style="stroke-width: 0; fill: rgb(0, 0, 0); fill-opacity: 0.5;"/></g><g class="legendlines"><path class="js-line" d="M5,-2h30" style="fill: none; stroke: rgb(0, 0, 0); stroke-opacity: 1; stroke-width: 2px;"/></g><g class="legendsymbols"><g class="legendpoints"/></g></g><rect class="legendtoggle" x="0" y="-9.5" width="89.015625" height="19" style="fill: rgb(0, 0, 0); fill-opacity: 0;"/></g><g class="traces" transform="translate(0, 33.5)" style="opacity: 1;"><text class="legendtext" text-anchor="start" x="40" y="4.680000000000001" style="font-family: 'Open Sans', verdana, arial, sans-serif; font-size: 12px; fill: rgb(42, 63, 95); fill-opacity: 1; white-space: pre;">Series 1</text><g class="layers"><g class="legendfill"/><g class="legendlines"><path class="js-line" d="M5,0h30" style="fill: none; stroke: rgb(0, 0, 255); stroke-opacity: 1; stroke-width: 2px;"/></g><g class="legendsymbols"><g class="legendpoints"/></g></g><rect class="legendtoggle" x="0" y="-9.5" width="89.015625" height="19" style="fill: rgb(0, 0, 0); fill-opacity: 0;"/></g></g></g><rect class="scrollbar" rx="20" ry="3" width="0" height="0" x="0" y="0" style="fill: rgb(128, 139, 164); fill-opacity: 1;"/></g><g class="g-gtitle"><text class="gtitle" x="40" y="50" text-anchor="start" dy="0em" style="font-family: 'Open Sans', verdana, arial, sans-serif; font-size: 17px; fill: rgb(42, 63, 95); opacity: 1; font-weight: normal; white-space: pre;">Redundant Sensor Drift</text></g><g class="g-xtitle"><text class="xtitle" x="380.5" y="360.3" text-anchor="middle" style="font-family: 'Open Sans', verdana, arial, sans-serif; font-size: 14px; fill: rgb(42, 63, 95); opacity: 1; font-weight: normal; white-space: pre;">Time</text></g><g class="g-ytitle"><text class="ytitle" transform="rotate(-90,36.746875,210)" x="36.746875" y="210" text-anchor="middle" style="font-family: 'Open Sans', verdana, arial, sans-serif; font-size: 14px; fill: rgb(42, 63, 95); opacity: 1; font-weight: normal; white-space: pre;">Value</text></g></g></svg>