<?xml version="1.0" encoding="UTF-8" standalone="no"?>
<!-- Created with Inkscape (http://www.inkscape.org/) -->

<svg
   xmlns:dc="http://purl.org/dc/elements/1.1/"
   xmlns:cc="http://creativecommons.org/ns#"
   xmlns:rdf="http://www.w3.org/1999/02/22-rdf-syntax-ns#"
   xmlns:svg="http://www.w3.org/2000/svg"
   xmlns="http://www.w3.org/2000/svg"
   xmlns:xlink="http://www.w3.org/1999/xlink"
   xmlns:sodipodi="http://sodipodi.sourceforge.net/DTD/sodipodi-0.dtd"
   xmlns:inkscape="http://www.inkscape.org/namespaces/inkscape"
   width="256"
   height="128"
   viewBox="0 0 67.73333 33.866668"
   version="1.1"
   id="svg8"
   sodipodi:docname="astronauth.svg"
   inkscape:version="0.92.5 (2060ec1f9f, 2020-04-08)">
  <defs
     id="defs2">
    <linearGradient
       inkscape:collect="always"
       id="Rainbow">
      <stop
         style="stop-color:#ff0600;stop-opacity:1"
         offset="0"
         id="stop1017" />
      <stop
         id="stop1057"
         offset="0.27233985"
         style="stop-color:#ff8100;stop-opacity:1" />
      <stop
         style="stop-color:#fff900;stop-opacity:1"
         offset="0.41665113"
         id="stop1059" />
      <stop
         id="stop1061"
         offset="0.59925205"
         style="stop-color:#82ff00;stop-opacity:1" />
      <stop
         style="stop-color:#004cff;stop-opacity:1"
         offset="0.75112104"
         id="stop1063" />
      <stop
         id="stop1065"
         offset="0.84573168"
         style="stop-color:#6500ff;stop-opacity:1" />
      <stop
         style="stop-color:#f700ff;stop-opacity:1"
         offset="1"
         id="stop1019" />
    </linearGradient>
    <linearGradient
       inkscape:collect="always"
       xlink:href="#Rainbow"
       id="linearGradient1023"
       x1="0.88060874"
       y1="270.29831"
       x2="8.5611382"
       y2="265.01199"
       gradientUnits="userSpaceOnUse" />
  </defs>
  <sodipodi:namedview
     id="base"
     pagecolor="#ffffff"
     bordercolor="#666666"
     borderopacity="1.0"
     inkscape:pageopacity="0.0"
     inkscape:pageshadow="2"
     inkscape:zoom="5.6"
     inkscape:cx="113.48422"
     inkscape:cy="79.571918"
     inkscape:document-units="mm"
     inkscape:current-layer="layer1"
     showgrid="false"
     inkscape:pagecheckerboard="true"
     units="px"
     inkscape:window-width="2560"
     inkscape:window-height="1389"
     inkscape:window-x="1920"
     inkscape:window-y="25"
     inkscape:window-maximized="1" />
  <metadata
     id="metadata5">
    <rdf:RDF>
      <cc:Work
         rdf:about="">
        <dc:format>image/svg+xml</dc:format>
        <dc:type
           rdf:resource="http://purl.org/dc/dcmitype/StillImage" />
        <dc:title></dc:title>
      </cc:Work>
    </rdf:RDF>
  </metadata>
  <g
     inkscape:label="Layer 1"
     inkscape:groupmode="layer"
     id="layer1"
     transform="translate(0,-263.13331)">
    <path
       style="fill:url(#linearGradient1023);fill-opacity:1;stroke:none;stroke-width:0.26458332px;stroke-linecap:butt;stroke-linejoin:miter;stroke-opacity:1"
       d="m 7.0492336,271.91005 c 1.9332496,-1.24814 4.2460294,-4.39725 1.4866867,-6.88219 -1.4648784,-1.3192 -3.401176,-2.53531 -6.3309467,-0.63477 -2.20768075,1.43212 -2.22521436,3.74639 -1.36975634,5.82982 0.90090524,2.19412 4.41083894,2.8513 6.21401634,1.68714 z"
       id="path1007"
       inkscape:connector-curvature="0"
       sodipodi:nodetypes="sssss" />
    <path
       style="fill:#000000;stroke-width:0.99999994"
       d="m 17.277317,296.97448 c -0.125222,-0.0239 0.266084,0.63322 -3.280341,-5.5088 -1.654462,-2.86535 -3.031141,-5.2105 -3.059285,-5.21144 -0.11561,-0.004 -0.405005,-0.4404 -1.6896469,-2.54875 -0.683106,-1.12111 -0.683106,-1.12111 -1.1899265,-1.12815 -0.5068205,-0.007 -0.5068205,-0.007 -1.211962,-0.28449 -1.1366106,-0.44721 -1.1503565,-0.45945 -1.8720559,-1.66615 -1.4694829,-2.45701 -2.2860696,-4.00359 -2.5956799,-4.9161 -0.225916,-0.66583 -0.6237881,-1.49151 -1.2305382,-2.55365 -1.0358725,-1.81333 -1.19968403,-2.26298 -0.93446366,-2.56505 0.1680863,-0.19144 0.17639742,-0.43885 0.0256204,-0.76267 -0.45131265,-0.9693 -0.23890560822,-3.00673 0.42985788,-4.12325 0.58005748,-0.96842 1.89548388,-1.93306 3.26117008,-2.39151 1.4583013,-0.48953 3.4033946,0.0385 4.700979,1.27622 0.4647097,0.44327 0.60462,0.52933 1.0354858,0.63701 0.5731329,0.14322 0.6369429,0.22956 3.1901559,4.31629 2.87388,4.60001 3.643674,5.93434 3.63757,6.3052 -0.0185,1.12345 -0.151276,1.66507 -0.553851,2.25915 -0.170361,0.2514 -0.170361,0.2514 0.902121,2.18153 0.589864,1.06157 1.083106,1.9698 1.096092,2.01827 0.01299,0.0485 0.271801,0.50069 0.575147,1.00492 0.613936,1.02048 0.646372,1.16087 0.315093,1.3638 -0.07013,0.043 -0.885035,0.51714 -1.810897,1.05373 -1.683382,0.97563 -1.683382,0.97563 -1.52046,1.09385 0.538103,0.39046 0.993736,1.16927 1.091499,1.86568 0.01826,0.13005 0.04896,0.20452 0.07945,0.19268 0.02733,-0.0106 0.842973,-0.47947 1.812542,-1.04189 2.067673,-1.19941 1.799245,-1.08742 1.955957,-0.81604 0.126677,0.21937 0.127095,0.22241 0.04451,0.3244 -0.260737,0.322 0.116813,1.01868 0.552047,1.01868 0.179535,0 0.193168,0.01 0.30499,0.21507 0.142259,0.26138 0.295869,0.13822 -1.270938,1.01901 -1.654675,0.93018 -1.579772,0.87326 -1.554244,1.1811 0.01755,0.2116 0.04129,0.26295 0.180596,0.39062 0.241268,0.2211 0.309682,0.20306 1.218874,-0.32145 1.100036,-0.63461 1.057186,-0.64104 1.567133,0.2351 0.540457,0.92855 0.655949,0.76507 -1.36987,1.93903 -0.893506,0.51779 -1.628287,0.94575 -1.63285,0.95103 -0.0046,0.005 0.204675,0.37503 0.464967,0.82167 0.649675,1.11479 0.678577,1.01679 -0.501082,1.69927 -0.482495,0.27915 -0.918801,0.50484 -0.969569,0.50154 -0.05077,-0.003 -0.138156,-0.0148 -0.194196,-0.0255 z m 0.889879,-0.94447 c 0.342261,-0.19741 0.626959,-0.36239 0.63266,-0.36661 0.0057,-0.004 -0.200434,-0.37076 -0.458078,-0.81453 -0.678884,-1.16932 -0.796115,-0.96621 1.238636,-2.14597 0.895555,-0.51924 1.63289,-0.94869 1.638522,-0.95432 0.0056,-0.006 -0.08896,-0.1816 -0.210202,-0.39104 -0.220442,-0.38079 -0.220442,-0.38079 -0.990372,0.063 -1.168718,0.67362 -1.749228,0.55912 -2.028054,-0.40001 -0.191153,-0.65754 -0.04192,-0.84292 1.283966,-1.59501 0.436308,-0.24749 0.879003,-0.49911 0.983769,-0.55916 0.190485,-0.10918 0.190485,-0.10918 0.01048,-0.29099 -0.201031,-0.20304 -0.346469,-0.47196 -0.385576,-0.71296 -0.03373,-0.20786 0.239728,-0.34858 -3.147456,1.61965 -0.643722,0.37405 -0.643722,0.37405 -0.775578,0.14449 -0.131855,-0.22957 -0.131855,-0.22957 -0.02836,-0.34988 0.488023,-0.56736 -0.612655,-2.39822 -1.287513,-2.14163 -0.110661,0.0421 -0.418841,-0.36862 -0.337383,-0.44961 0.0174,-0.0173 0.824924,-0.49074 1.794494,-1.05209 0.96957,-0.56134 1.895696,-1.09816 2.058057,-1.19292 0.295205,-0.1723 0.295205,-0.1723 -0.153145,-0.91923 -0.44835,-0.74693 -0.44835,-0.74693 -0.785131,-0.5613 -4.978029,2.74394 -5.676157,3.17644 -5.533716,3.42816 1.015191,1.79409 5.790154,10.00062 5.818922,10.00075 0.02133,9e-5 0.318808,-0.16135 0.66107,-0.35876 z M 11.55792,285.48006 c 0.688003,-0.28747 2.235094,-1.39903 2.114722,-1.5194 -0.09326,-0.0933 -0.755042,0.22673 -1.774398,0.85798 -0.656403,0.40649 -0.81427,0.57611 -0.633936,0.68115 0.101312,0.059 0.105905,0.0587 0.293612,-0.0197 z m -0.419179,-0.96313 c 0.527524,-0.21435 1.988756,-1.09875 2.071817,-1.25395 0.207,-0.38678 -0.94353,-0.73939 -1.601119,-0.49069 -0.586536,0.22182 -0.988001,0.84671 -1.002321,1.56014 -0.0066,0.32935 0.09142,0.36337 0.531623,0.1845 z m 3.77264,-0.98986 c 0.71551,-0.33849 2.093219,-1.29744 2.093219,-1.45696 0,-0.24259 -1.986861,0.83665 -2.517893,1.36768 -0.231937,0.23194 0.01389,0.28362 0.424674,0.0893 z m -4.609226,-0.3524 c 0.309805,-0.61372 1.063542,-1.04665 1.986812,-1.14118 0.418753,-0.0429 0.432243,0.0387 -0.204832,-1.23862 -0.543284,-1.08926 -0.62102,-1.3373 -0.427754,-1.36485 0.131002,-0.0187 0.356703,0.25754 0.89332,1.09324 0.471043,0.73357 0.735292,1.0738 0.801991,1.03257 0.02292,-0.0142 0.130809,-0.16104 0.239745,-0.3264 0.393313,-0.59701 1.121804,-1.03607 1.79335,-1.08085 0.411955,-0.0275 0.473959,-0.0504 0.473959,-0.17515 0,-0.16138 -0.547286,-1.18683 -1.870476,-3.50474 -1.685727,-2.95298 -1.790952,-3.17714 -1.506634,-3.20963 0.241757,-0.0276 0.511986,0.32489 1.548216,2.0197 0.333454,0.54539 0.611943,0.99818 0.618865,1.00621 0.02299,0.0267 1.2541,-0.70599 1.2541,-0.74635 0,-0.1164 -2.856338,-4.956 -3.177255,-5.38334 -0.361461,-0.48132 -1.089154,-0.91693 -2.034708,-1.21801 -0.6910527,-0.22005 -0.642824,-0.24888 -1.0290616,0.61532 -0.9589088,2.14556 -3.1196788,3.44134 -5.4315987,3.25724 -1.2032641,-0.0958 -1.3686615,0.12939 -1.3184769,1.79528 0.031874,1.05806 0.091188,1.18565 2.1831286,4.69609 1.1232944,1.88497 1.1232944,1.88497 1.393231,1.72984 0.1484649,-0.0853 0.4036706,-0.22953 0.5671233,-0.32045 0.3654401,-0.20326 0.3936748,-0.0596 -0.2385039,-1.21362 -0.9853906,-1.7988 -1.1757959,-2.2831 -0.9537075,-2.42579 0.1609283,-0.10339 0.4138935,0.26216 1.6874468,2.43843 2.4996969,4.27155 2.4673289,4.22843 2.7517199,3.66506 z M 8.5108446,277.829 c -0.42085,-0.57001 -1.4994827,-2.51993 -1.7104355,-3.09208 -0.096501,-0.26173 -0.014565,-0.36371 0.6399041,-0.79649 1.3590243,-0.89868 2.2093941,-1.26974 2.4288284,-1.05981 0.3996204,0.3823 1.9791114,3.02852 1.9791114,3.31572 0,0.33682 -2.3022465,1.75372 -3.0020276,1.84757 -0.1521622,0.0204 -0.1701353,0.009 -0.3353808,-0.21491 z m 1.0272715,-0.39001 c 0.2343848,-0.12419 1.7633609,-1.05061 1.8629569,-1.12878 0.01909,-0.015 -1.6600556,-2.92512 -1.7352344,-3.00735 -0.045321,-0.0496 -2.179008,1.11401 -2.4161604,1.31762 -0.061779,0.053 1.4461855,2.75038 1.6535421,2.95774 0.1043829,0.10438 0.2250731,0.0779 0.6348958,-0.13923 z m 0.1613238,-0.68357 c -0.339622,-0.14761 -0.2263986,-0.55948 0.1711548,-0.62261 0.2048043,-0.0325 0.3470193,0.10181 0.3470193,0.32779 0,0.32634 -0.192996,0.43614 -0.5181741,0.29482 z m -0.9031271,-0.77504 c -0.1854385,-0.10801 0.055097,-0.35579 0.6330394,-0.65212 0.5864258,-0.30067 0.7275778,-0.17932 0.2817762,0.24224 -0.3689736,0.34892 -0.7366455,0.51365 -0.9148156,0.40988 z m -0.3856244,-0.60422 c 0,-0.14299 0.7947924,-0.65036 1.1568729,-0.73852 0.2018649,-0.0491 0.1479648,0.0893 -0.1101783,0.28305 -0.4060431,0.30471 -1.0466946,0.58349 -1.0466946,0.45547 z m -0.3525708,-0.66689 c 0,-0.15162 0.9898872,-0.73214 1.1930446,-0.69966 0.1037773,0.0166 0.1012775,0.0226 -0.081527,0.19684 -0.3180588,0.3031 -1.1115175,0.66205 -1.1115176,0.50282 z m 6.6509664,7.77092 c 1.750481,-0.92534 2.073953,-1.22674 1.595856,-1.48695 -1.081894,-0.58884 -2.278328,0.0298 -2.374492,1.22783 -0.04558,0.56782 0.101849,0.61689 0.778636,0.25912 z m -6.5880686,-0.47275 c 0.1427115,-0.10435 -0.1535882,-0.77602 -0.373063,-0.84568 -0.2313638,-0.0734 -0.7121342,0.33453 -0.6234954,0.52907 0.102633,0.22525 0.8128963,0.45091 0.9965584,0.31661 z m 7.5282886,-4.38188 c 0.167742,-0.18845 0.263741,-0.80134 0.149904,-0.95702 -0.222425,-0.30418 -0.883039,0.1724 -0.709099,0.51156 0.242159,0.47219 0.413747,0.60888 0.559195,0.44546 z M 2.4147694,273.28454 c 0.087297,-0.20194 0.2505833,-0.85971 0.219477,-0.88412 -0.010417,-0.008 -0.2271771,-0.16559 -0.4816892,-0.34981 -0.254512,-0.18421 -0.6300646,-0.47415 -0.8345612,-0.6443 -0.2044967,-0.17015 -0.38794371,-0.29939 -0.40765999,-0.2872 -0.11682258,0.0722 0.0976955,0.61221 0.55826929,1.40536 0.5645254,0.97216 0.77974,1.14504 0.9461641,0.76007 z m 2.558354,-1.0467 c 0,-0.0242 -0.00496,-0.0441 -0.01102,-0.0441 -0.00606,-2e-5 -0.3580794,-0.0866 -0.7822663,-0.1925 -1.224208,-0.3055 -1.6285829,-0.53078 -2.5553307,-1.42362 -0.3155543,-0.304 -0.573735,-0.54001 -0.573735,-0.52445 0,0.0759 0.6045437,0.83851 0.8229994,1.03817 0.6967887,0.63682 1.5736859,1.04027 2.4823515,1.1421 0.4757174,0.0533 0.6169991,0.0543 0.6169991,0.004 z m 0.8593912,-0.73332 c 1.298145,-0.24592 2.0286451,-0.84921 2.800799,-2.31307 0.1997641,-0.37872 0.3003317,-0.53434 0.2812682,-0.43524 -0.066327,0.34478 -0.2485903,0.90157 -0.4190542,1.28015 -0.288154,0.63994 -0.1133925,0.55712 0.2833436,-0.1343 1.2105129,-2.10963 0.4547439,-4.50065 -1.822537,-5.76595 -2.1516607,-1.1955 -5.3616232,0.19537 -6.13887381,2.65996 -0.1850844,0.58689 -0.26814621,1.42277 -0.14289371,1.438 0.0482929,0.006 0.0379872,0.024 0.30436037,-0.53558 0.91085565,-1.91346 4.78907475,-3.90077 6.22453855,-3.18963 0.324109,0.16056 0.2541735,0.20744 -0.2574539,0.17257 -2.528738,-0.17236 -6.42768518,2.79973 -5.6634882,4.31717 1.0064386,1.99844 2.598955,2.87552 4.5499911,2.50592 z m 5.2849574,-3.08356 c 0.153753,-0.059 -0.112605,-0.68138 -0.682999,-1.59592 -0.5916032,-0.94854 -0.8163406,-1.07312 -0.638217,-0.35377 0.1174245,0.47421 0.2006899,1.07804 0.2008767,1.45673 1.32e-4,0.27765 0.2053223,0.38111 1.0211783,0.51488 0.0162,0.003 0.06082,-0.007 0.09916,-0.0219 z"
       id="path977"
       inkscape:connector-curvature="0"
       inkscape:label="path977" />
    <g
       aria-label="ASTRON
AUTH"
       style="font-style:normal;font-weight:normal;font-size:10.58333302px;line-height:1;font-family:sans-serif;text-align:end;letter-spacing:0px;word-spacing:0px;text-anchor:end;fill:#000000;fill-opacity:1;stroke:none;stroke-width:0.26458332"
       id="text981">
      <path
         d="m 23.294112,277.22184 h -3.110921 l -0.490926,1.4056 h -1.999878 l 2.857706,-7.71529 h 2.371949 l 2.857706,7.71529 H 23.77987 Z m -2.614827,-1.43143 h 2.113566 l -1.0542,-3.06958 z"
         style="font-style:normal;font-variant:normal;font-weight:bold;font-stretch:normal;line-height:1;font-family:sans-serif;-inkscape-font-specification:'sans-serif Bold';text-align:end;text-anchor:end;fill:#003896;fill-opacity:1;stroke-width:0.26458332"
         id="path985"
         inkscape:connector-curvature="0"
         inkscape:label="A" />
      <path
         d="m 32.172122,271.15503 v 1.63297 q -0.63562,-0.28422 -1.240234,-0.42891 -0.604614,-0.14469 -1.142049,-0.14469 -0.713135,0 -1.054199,0.19637 -0.341065,0.19637 -0.341065,0.60978 0,0.31006 0.227377,0.48576 0.232543,0.17053 0.837158,0.29455 l 0.847493,0.17053 q 1.286743,0.25839 1.829346,0.78549 0.542602,0.5271 0.542602,1.49861 0,1.27641 -0.759643,1.9017 -0.754476,0.62011 -2.309937,0.62011 -0.733805,0 -1.472778,-0.13952 -0.738973,-0.13953 -1.477946,-0.41341 v -1.67949 q 0.738973,0.39274 1.42627,0.59428 0.692464,0.19637 1.333252,0.19637 0.651123,0 0.997355,-0.21704 0.346232,-0.21704 0.346232,-0.62012 0,-0.36173 -0.237712,-0.5581 -0.232544,-0.19637 -0.935343,-0.3514 l -0.769979,-0.17053 q -1.157552,-0.24805 -1.694987,-0.79065 -0.532267,-0.54261 -0.532267,-1.46245 0,-1.15238 0.74414,-1.7725 0.744141,-0.62012 2.139405,-0.62012 0.63562,0 1.307413,0.0982 0.671794,0.093 1.390096,0.28422 z"
         style="font-style:normal;font-variant:normal;font-weight:bold;font-stretch:normal;line-height:1;font-family:sans-serif;-inkscape-font-specification:'sans-serif Bold';text-align:end;text-anchor:end;fill:#003896;fill-opacity:1;stroke-width:0.26458332"
         id="path987"
         inkscape:connector-curvature="0"
         inkscape:label="S" />
      <path
         d="m 33.505374,270.91215 h 7.110677 v 1.50378 h -2.557983 v 6.21151 h -1.989543 v -6.21151 h -2.563151 z"
         style="font-style:normal;font-variant:normal;font-weight:bold;font-stretch:normal;line-height:1;font-family:sans-serif;-inkscape-font-specification:'sans-serif Bold';text-align:end;text-anchor:end;fill:#003896;fill-opacity:1;stroke-width:0.26458332"
         id="path989"
         inkscape:connector-curvature="0"
         inkscape:label="T" />
      <path
         d="m 44.471113,274.33313 q 0.625284,0 0.894002,-0.23254 0.273885,-0.23255 0.273885,-0.76482 0,-0.52709 -0.273885,-0.75447 -0.268718,-0.22738 -0.894002,-0.22738 h -0.837159 v 1.97921 z m -0.837159,1.37459 v 2.91972 h -1.989542 v -7.71529 h 3.038574 q 1.524455,0 2.232422,0.5116 0.713135,0.51159 0.713135,1.61747 0,0.76481 -0.372071,1.25574 -0.366902,0.49092 -1.111043,0.72347 0.408244,0.093 0.728638,0.42374 0.325561,0.32556 0.65629,0.99219 l 1.080038,2.19108 h -2.118734 l -0.940511,-1.91719 q -0.28422,-0.57878 -0.578776,-0.79065 -0.289388,-0.21188 -0.775146,-0.21188 z"
         style="font-style:normal;font-variant:normal;font-weight:bold;font-stretch:normal;line-height:1;font-family:sans-serif;-inkscape-font-specification:'sans-serif Bold';text-align:end;text-anchor:end;fill:#00ffff;stroke-width:0.26458332"
         id="path991"
         inkscape:connector-curvature="0"
         inkscape:label="R" />
      <path
         d="m 53.318117,272.2144 q -0.909506,0 -1.410767,0.67179 -0.501261,0.67179 -0.501261,1.89136 0,1.21439 0.501261,1.88619 0.501261,0.67179 1.410767,0.67179 0.914672,0 1.415934,-0.67179 0.501261,-0.6718 0.501261,-1.88619 0,-1.21957 -0.501261,-1.89136 -0.501262,-0.67179 -1.415934,-0.67179 z m 0,-1.44178 q 1.860351,0 2.91455,1.06454 1.054199,1.06453 1.054199,2.94039 0,1.87068 -1.054199,2.93522 -1.054199,1.06453 -2.91455,1.06453 -1.855184,0 -2.914551,-1.06453 -1.054199,-1.06454 -1.054199,-2.93522 0,-1.87586 1.054199,-2.94039 1.059367,-1.06454 2.914551,-1.06454 z"
         style="font-style:normal;font-variant:normal;font-weight:bold;font-stretch:normal;line-height:1;font-family:sans-serif;-inkscape-font-specification:'sans-serif Bold';text-align:end;text-anchor:end;fill:#003896;fill-opacity:1;stroke-width:0.26458332"
         id="path993"
         inkscape:connector-curvature="0"
         inkscape:label="O" />
      <path
         d="m 58.790652,270.91215 h 2.222087 l 2.80603,5.29167 v -5.29167 h 1.88619 v 7.71529 h -2.222087 l -2.80603,-5.29167 v 5.29167 h -1.88619 z"
         style="font-style:normal;font-variant:normal;font-weight:bold;font-stretch:normal;line-height:1;font-family:sans-serif;-inkscape-font-specification:'sans-serif Bold';text-align:end;text-anchor:end;fill:#003896;fill-opacity:1;stroke-width:0.26458332"
         id="path995"
         inkscape:connector-curvature="0"
         inkscape:label="N" />
      <path
         style="font-style:normal;font-variant:normal;font-weight:bold;font-stretch:normal;line-height:1;font-family:sans-serif;-inkscape-font-specification:'sans-serif Bold';text-align:end;text-anchor:end;fill:#800080;stroke-width:0.99999994"
         d="m 140.0332,69.400391 -10.80078,29.160156 h 7.5586 l 1.85546,-5.3125 h 11.75782 l 1.83593,5.3125 h 7.5586 L 148.99805,69.400391 Z m 22.40235,0 v 17.480468 c 0,4.127622 1.03515,7.200533 3.10547,9.21875 2.07031,2.018243 5.22135,3.027344 9.45312,3.027344 4.24479,0 7.40235,-1.009101 9.47266,-3.027344 2.07031,-2.018217 3.10547,-5.091128 3.10547,-9.21875 V 69.400391 h -7.51954 v 17.480468 c 0,2.40887 -0.39713,4.134119 -1.1914,5.175782 -0.78125,1.028636 -2.07031,1.542968 -3.86719,1.542968 -1.78385,0 -3.07292,-0.514332 -3.86719,-1.542968 -0.78125,-1.041663 -1.17187,-2.766912 -1.17187,-5.175782 V 69.400391 Z m 29.0039,0 v 5.683593 h 9.6875 v 23.476563 h 7.51953 V 75.083984 h 9.66797 v -5.683593 z m 30.76172,0 v 29.160156 h 7.51953 V 86.197266 h 11.09375 v 12.363281 h 7.51953 V 69.400391 h -7.51953 V 80.513672 H 229.7207 V 69.400391 Z m -77.67578,6.835937 3.98438,11.601563 h -7.98829 z"
         transform="matrix(0.26458333,0,0,0.26458333,0,263.13331)"
         id="path997"
         inkscape:connector-curvature="0"
         inkscape:label="AUTH" />
    </g>
  </g>
</svg>
